<svg width="61" height="61" viewBox="0 0 61 61" fill="none" xmlns="http://www.w3.org/2000/svg">
<circle cx="30.5" cy="30.5" r="30.5" fill="url(#paint0_linear_3651_14030)"/>
<circle cx="30.5" cy="30.5" r="30.5" fill="url(#paint1_linear_3651_14030)"/>
<path d="M43.1562 28.1795H42.3125V24.0621C42.3125 23.3341 42.0458 22.6359 41.5711 22.1211C41.0964 21.6063 40.4526 21.3171 39.7812 21.3171H19.5312C18.8599 21.3171 18.2161 21.6063 17.7414 22.1211C17.2667 22.6359 17 23.3341 17 24.0621V41.4468C17 42.1748 17.2667 42.873 17.7414 43.3878C18.2161 43.9026 18.8599 44.1918 19.5312 44.1918H39.7812C40.4526 44.1918 41.0964 43.9026 41.5711 43.3878C42.0458 42.873 42.3125 42.1748 42.3125 41.4468V37.3294H43.1562C43.38 37.3294 43.5946 37.233 43.7529 37.0614C43.9111 36.8898 44 36.6571 44 36.4144V29.0945C44 28.8518 43.9111 28.6191 43.7529 28.4475C43.5946 28.2759 43.38 28.1795 43.1562 28.1795ZM42.3125 35.4994H39.3594C38.688 35.4994 38.0442 35.2102 37.5695 34.6954C37.0948 34.1807 36.8281 33.4825 36.8281 32.7545C36.8281 32.0265 37.0948 31.3283 37.5695 30.8135C38.0442 30.2987 38.688 30.0095 39.3594 30.0095H42.3125V35.4994Z" fill="#1D34FF"/>
<defs>
<linearGradient id="paint0_linear_3651_14030" x1="49.5" y1="-15.5" x2="-3.52278e-06" y2="81" gradientUnits="userSpaceOnUse">
<stop stop-color="#55C2FF"/>
<stop offset="1" stop-color="white"/>
</linearGradient>
<linearGradient id="paint1_linear_3651_14030" x1="30.5" y1="0" x2="30.5" y2="61" gradientUnits="userSpaceOnUse">
<stop stop-color="white"/>
<stop offset="1" stop-color="white" stop-opacity="0"/>
</linearGradient>
</defs>
</svg>
