<svg width="90" height="90" viewBox="0 0 90 90" fill="none" xmlns="http://www.w3.org/2000/svg">
<circle cx="45" cy="45" r="45" fill="#FFE3B9"/>
<path d="M50.3949 37.5737C50.67 38.1556 50.7716 38.8044 50.6874 39.4425C50.6505 39.7844 50.7489 40.1271 50.9615 40.3974C51.1741 40.6677 51.484 40.844 51.8249 40.8887L52.8487 41.035C53.5909 41.127 54.2834 41.457 54.8224 41.9755C55.3614 42.494 55.718 43.1731 55.8387 43.9112C55.8848 44.2778 56.0325 44.6243 56.2651 44.9114C56.4977 45.1985 56.8059 45.4149 57.1549 45.5362H57.3012L61.0387 47.47C61.1756 46.6537 61.2463 45.8277 61.2499 45C61.2461 41.6565 60.211 38.3956 58.2858 35.6619C56.3607 32.9283 53.6391 30.8551 50.4924 29.725C50.0049 31.35 49.0787 34.7137 49.9074 36.5012L50.3949 37.5737Z" fill="#DA7703"/>
<path d="M47.5998 49.875C47.9148 49.6 48.2875 49.3992 48.6904 49.2874C49.0933 49.1755 49.5162 49.1555 49.9279 49.2288C50.3395 49.3021 50.7295 49.4668 51.0691 49.7108C51.4086 49.9548 51.6891 50.2719 51.8898 50.6387L52.1173 51.0612C52.8589 50.4762 53.791 50.1867 54.7336 50.2487C55.2968 50.2797 55.8464 50.4341 56.3434 50.7008C56.8404 50.9676 57.2727 51.3402 57.6098 51.7925L58.9586 53.4175C59.6439 52.285 60.1895 51.0737 60.5836 49.81L56.3748 47.5025C55.683 47.2447 55.0719 46.8081 54.6037 46.2372C54.1356 45.6663 53.8271 44.9814 53.7098 44.2525C53.6638 43.975 53.5301 43.7196 53.3283 43.5237C53.1265 43.3278 52.8673 43.2016 52.5886 43.1637L51.4998 43.05C50.5917 42.9283 49.7677 42.4548 49.2054 41.7313C48.6431 41.0079 48.3875 40.0926 48.4936 39.1825C48.5207 38.9383 48.4814 38.6912 48.3798 38.4675L47.8761 37.395C46.8523 35.1687 47.5348 31.9838 48.3636 29.1238C47.259 28.8791 46.1312 28.7537 44.9998 28.75C42.9571 28.7563 40.9338 29.1477 39.0361 29.9038C40.0339 30.6371 40.8725 31.5654 41.501 32.6325C42.1294 33.6995 42.5347 34.883 42.6923 36.1112C42.69 36.5329 42.5797 36.9468 42.3721 37.3138C42.1644 37.6807 41.8663 37.9884 41.5061 38.2075C41.47 38.2224 41.4388 38.247 41.4159 38.2785C41.3929 38.3101 41.3791 38.3474 41.3761 38.3863C41.3576 38.4184 41.3478 38.4548 41.3478 38.4919C41.3478 38.529 41.3576 38.5654 41.3761 38.5975L42.0911 39.3938C42.8096 40.2099 43.337 41.176 43.635 42.2217C43.933 43.2675 43.994 44.3665 43.8136 45.4388C43.7059 46.0726 43.4738 46.679 43.1308 47.2228C42.7877 47.7666 42.3405 48.2372 41.8148 48.6075C41.2952 48.9837 40.705 49.2511 40.0795 49.3935C39.4539 49.5359 38.8061 49.5505 38.1748 49.4362C38.1398 49.4177 38.1007 49.4081 38.0611 49.4081C38.0215 49.4081 37.9824 49.4177 37.9473 49.4362C37.9288 49.4684 37.919 49.5048 37.919 49.5419C37.919 49.579 37.9288 49.6154 37.9473 49.6475C38.0132 50.5424 37.8613 51.44 37.5048 52.2635C37.1482 53.087 36.5975 53.8119 35.8998 54.3763L33.5273 56.4888C35.0258 57.9889 36.8034 59.1813 38.7598 59.9987C41.2489 56.2504 44.2212 52.8465 47.5998 49.875Z" fill="#DA7703"/>
<path d="M57.6911 55.1237L55.9198 53.125C55.7718 52.9084 55.5763 52.7284 55.3482 52.5989C55.1201 52.4693 54.8654 52.3936 54.6035 52.3775C54.3565 52.3568 54.108 52.3929 53.877 52.483C53.646 52.5731 53.4388 52.7149 53.271 52.8975C53.08 53.096 52.8457 53.2477 52.5864 53.3408C52.327 53.4338 52.0497 53.4656 51.7761 53.4337C51.5046 53.3966 51.2457 53.2964 51.02 53.1412C50.7942 52.986 50.608 52.7801 50.4761 52.54L49.9886 51.6462C49.9443 51.5628 49.8819 51.4903 49.806 51.4341C49.7301 51.3778 49.6425 51.3393 49.5498 51.3212C49.4552 51.3044 49.358 51.3089 49.2653 51.3341C49.1725 51.3594 49.0866 51.405 49.0135 51.4675C45.9332 54.2137 43.2041 57.3303 40.8886 60.7462C42.2307 61.0952 43.6131 61.2646 44.9998 61.25C47.4394 61.247 49.847 60.6947 52.0441 59.6342C54.2411 58.5737 56.1712 57.032 57.6911 55.1237ZM40.4011 36.3387C40.4399 36.3145 40.4721 36.2811 40.4947 36.2414C40.5174 36.2017 40.5299 36.1569 40.5311 36.1112C40.3245 35.0986 39.9065 34.1409 39.3044 33.3009C38.7024 32.4608 37.9299 31.7573 37.0373 31.2362C36.9495 31.2012 36.8714 31.1455 36.8098 31.0737C34.8312 32.2294 33.1208 33.7925 31.792 35.6593C30.4633 37.5261 29.5465 39.654 29.1024 41.9019C28.6584 44.1499 28.6972 46.4666 29.2163 48.6984C29.7354 50.9302 30.723 53.0262 32.1136 54.8475L34.4698 52.7837C34.9038 52.4395 35.2475 51.9948 35.4711 51.488C35.6948 50.9812 35.7917 50.4276 35.7536 49.875C35.7225 49.5044 35.7766 49.1316 35.9118 48.7852C36.047 48.4387 36.2597 48.1278 36.5336 47.8762C36.8094 47.6313 37.136 47.4504 37.49 47.3464C37.844 47.2425 38.2165 47.2181 38.5811 47.275C38.9328 47.3402 39.2941 47.3336 39.6432 47.2554C39.9924 47.1772 40.322 47.0291 40.6123 46.82C40.9113 46.6239 41.1666 46.3683 41.3623 46.0692C41.558 45.77 41.6899 45.4337 41.7498 45.0812C41.8782 44.3268 41.8369 43.5533 41.6289 42.8168C41.4209 42.0804 41.0514 41.3995 40.5473 40.8237L39.8161 40.125C39.577 39.8557 39.4005 39.5368 39.2993 39.1912C39.1982 38.8456 39.1749 38.4819 39.2311 38.1262C39.2727 37.7575 39.4003 37.4038 39.6035 37.0933C39.8067 36.7829 40.0798 36.5244 40.4011 36.3387Z" fill="#DA7703"/>
<path d="M45 20.625C41.2575 20.6068 37.5612 21.4506 34.1973 23.091C30.8335 24.7314 27.8926 27.1244 25.6025 30.0844C23.3125 33.0444 21.7347 36.492 20.9917 40.16C20.2486 43.828 20.3601 47.6178 21.3175 51.2357C22.275 54.8537 24.0527 58.2026 26.5128 61.0228C28.973 63.8431 32.0495 66.059 35.504 67.4988C38.9584 68.9385 42.698 69.5635 46.4329 69.3253C50.1678 69.0871 53.7977 67.992 57.0412 66.125C56.2046 65.4141 55.5617 64.5029 55.1725 63.4763C50.7147 65.9267 45.5223 66.6863 40.5494 65.6155C35.5764 64.5447 31.1569 61.7153 28.1027 57.6473C25.0485 53.5793 23.5647 48.5458 23.9241 43.4716C24.2834 38.3974 26.4617 33.6232 30.0587 30.0262C33.6557 26.4292 38.4298 24.251 43.5041 23.8916C48.5783 23.5323 53.6118 25.016 57.6798 28.0702C61.7478 31.1244 64.5771 35.544 65.6479 40.5169C66.7188 45.4899 65.9592 50.6822 63.5087 55.14C64.5271 55.5433 65.427 56.1972 66.125 57.0413C68.2288 53.3386 69.3258 49.1493 69.3067 44.8906C69.2876 40.632 68.1531 36.4527 66.0161 32.769C63.8792 29.0853 60.8145 26.0257 57.1272 23.8951C53.4398 21.7644 49.2586 20.6369 45 20.625Z" fill="#DA7703"/>
<path d="M61.25 66.125C63.9424 66.125 66.125 63.9424 66.125 61.25C66.125 58.5576 63.9424 56.375 61.25 56.375C58.5576 56.375 56.375 58.5576 56.375 61.25C56.375 63.9424 58.5576 66.125 61.25 66.125Z" fill="#DA7703"/>
</svg>
