<svg width="1440" height="931" viewBox="0 0 1440 931" fill="none" xmlns="http://www.w3.org/2000/svg">
<mask id="mask0_4149_13002" style="mask-type:alpha" maskUnits="userSpaceOnUse" x="0" y="0" width="1440" height="922">
<rect width="1440" height="921.94" fill="url(#paint0_linear_4149_13002)"/>
</mask>
<g mask="url(#mask0_4149_13002)">
<rect width="1440" height="921.94" fill="url(#paint1_linear_4149_13002)"/>
<ellipse cx="714.2" cy="519.892" rx="610.957" ry="586.479" fill="white" fill-opacity="0.46"/>
<ellipse cx="715.167" cy="514.258" rx="480.452" ry="481.476" fill="white" fill-opacity="0.46"/>
<ellipse cx="720.483" cy="520.916" rx="336.896" ry="357.009" fill="white" fill-opacity="0.46"/>
</g>
<mask id="mask1_4149_13002" style="mask-type:alpha" maskUnits="userSpaceOnUse" x="100" y="139" width="1237" height="784">
<rect x="100" y="139.881" width="1236.76" height="783.119" fill="url(#paint2_linear_4149_13002)"/>
</mask>
<g mask="url(#mask1_4149_13002)">
<path d="M1327.11 518.78C1327.11 846.953 1052.68 1113.09 714.024 1113.09C375.368 1113.09 100.94 846.953 100.94 518.78C100.94 190.608 375.368 -75.5333 714.024 -75.5333C1052.68 -75.5333 1327.11 190.608 1327.11 518.78Z" stroke="#C6CFFF" stroke-width="4"/>
<path d="M1195 508.127C1195 771.254 980.333 984.582 715.5 984.582C450.667 984.582 236 771.254 236 508.127C236 245 450.667 31.6716 715.5 31.6716C980.333 31.6716 1195 245 1195 508.127Z" stroke="#C6CFFF" stroke-width="4"/>
</g>
<defs>
<linearGradient id="paint0_linear_4149_13002" x1="720" y1="0" x2="720" y2="1159.6" gradientUnits="userSpaceOnUse">
<stop stop-color="#7EA2FF"/>
<stop offset="1" stop-color="#5081FF" stop-opacity="0"/>
</linearGradient>
<linearGradient id="paint1_linear_4149_13002" x1="720" y1="0" x2="720" y2="1159.6" gradientUnits="userSpaceOnUse">
<stop stop-color="white"/>
<stop offset="0.510417" stop-color="#6D96FF"/>
<stop offset="1" stop-color="#DEE7FF" stop-opacity="0"/>
</linearGradient>
<linearGradient id="paint2_linear_4149_13002" x1="718.379" y1="139.881" x2="718.379" y2="923" gradientUnits="userSpaceOnUse">
<stop stop-color="#C4C4C4" stop-opacity="0"/>
<stop offset="0.55483" stop-color="#C4C4C4"/>
<stop offset="1" stop-color="#C4C4C4" stop-opacity="0"/>
</linearGradient>
</defs>
</svg>
