<svg width="1443" height="101" viewBox="0 0 1443 101" fill="none" xmlns="http://www.w3.org/2000/svg">
<path d="M36 73.3823C50.4375 73.3823 59.3906 65.9292 59.3906 54.0229C59.3906 45.0698 52.6406 38.3667 43.4531 37.6636V37.2886C50.625 36.2104 56.1562 30.0229 56.1562 22.6167C56.1562 12.2573 48.1875 5.7417 35.4844 5.7417H5.625V73.3823H36ZM19.7812 16.2886H31.8281C38.4375 16.2886 42.2344 19.3823 42.2344 24.8198C42.2344 30.5386 37.9219 33.8667 30.375 33.8667H19.7812V16.2886ZM19.7812 62.8354V43.1948H32.0625C40.4062 43.1948 44.9531 46.5698 44.9531 52.8979C44.9531 59.3667 40.5469 62.8354 32.3906 62.8354H19.7812ZM90.0469 74.2729C105.703 74.2729 115.5 64.2886 115.5 47.5542C115.5 31.0073 105.609 20.8823 90.0469 20.8823C74.5312 20.8823 64.5938 31.0542 64.5938 47.5542C64.5938 64.2417 74.3906 74.2729 90.0469 74.2729ZM90.0469 63.7261C82.8281 63.7261 78.4688 57.8198 78.4688 47.5542C78.4688 37.4292 82.8281 31.3823 90.0469 31.3823C97.2188 31.3823 101.578 37.3823 101.578 47.5542C101.578 57.8198 97.2656 63.7261 90.0469 63.7261ZM170.156 21.7729H156.469V51.1636C156.469 58.1479 152.484 62.7417 146.109 62.7417C139.781 62.7417 136.312 58.9917 136.312 52.0073V21.7729H122.625V54.8667C122.625 66.8667 129.984 74.1323 141.141 74.1323C148.969 74.1323 154.031 70.5229 156.656 64.0542H156.938V73.3823H170.156V21.7729ZM179.484 73.3823H193.172V43.9448C193.172 37.1011 197.109 32.4136 203.672 32.4136C210.141 32.4136 213.328 36.3042 213.328 43.1479V73.3823H227.016V40.2886C227.016 28.2417 220.547 21.0229 209.109 21.0229C201.188 21.0229 195.938 24.4917 192.984 31.0073H192.703V21.7729H179.484V73.3823ZM255.328 73.9917C262.922 73.9917 268.875 70.2417 271.406 64.5698H271.641V73.3823H285.141V2.50732H271.453V30.5854H271.172C268.594 24.8667 262.828 21.1636 255.375 21.1636C242.531 21.1636 234.188 31.3354 234.188 47.5073C234.188 63.7729 242.484 73.9917 255.328 73.9917ZM259.875 32.2261C266.953 32.2261 271.547 38.2729 271.547 47.6011C271.547 56.9292 266.953 62.9292 259.875 62.9292C252.75 62.9292 248.203 57.0229 248.203 47.5542C248.203 38.1792 252.75 32.2261 259.875 32.2261ZM295.078 73.3823H308.766V2.50732H295.078V73.3823ZM341.438 31.1011C347.766 31.1011 352.172 35.5073 352.406 42.2573H330.141C330.609 35.6479 335.203 31.1011 341.438 31.1011ZM352.594 57.6323C351.281 61.6167 347.203 64.0542 342.047 64.0542C334.828 64.0542 330 59.0386 330 51.5854V50.7417H365.625V46.5229C365.625 30.8198 356.156 20.8823 341.297 20.8823C326.156 20.8823 316.5 31.3823 316.5 47.7886C316.5 64.1948 326.109 74.2729 341.812 74.2729C354.375 74.2729 363.703 67.6167 365.203 57.6323H352.594ZM372.094 36.9604C372.094 44.5073 377.109 49.5229 386.812 51.7261L396.328 53.8823C401.016 55.0073 402.797 56.4136 402.797 59.0854C402.797 62.4604 399.469 64.5698 394.031 64.5698C388.359 64.5698 384.844 62.1323 384.188 57.7729H370.828C371.531 67.7104 380.062 74.2729 393.656 74.2729C407.156 74.2729 416.391 67.6636 416.391 57.6323C416.391 49.9448 412.266 45.9604 401.906 43.6167L392.203 41.5073C387.562 40.4292 385.312 38.6948 385.312 36.1167C385.312 32.7886 388.594 30.5854 393.516 30.5854C398.766 30.5854 402.188 33.1636 402.469 37.2417H415.125C414.938 27.3979 406.453 20.8823 393.703 20.8823C380.625 20.8823 372.094 27.2573 372.094 36.9604ZM422.625 36.9604C422.625 44.5073 427.641 49.5229 437.344 51.7261L446.859 53.8823C451.547 55.0073 453.328 56.4136 453.328 59.0854C453.328 62.4604 450 64.5698 444.562 64.5698C438.891 64.5698 435.375 62.1323 434.719 57.7729H421.359C422.062 67.7104 430.594 74.2729 444.188 74.2729C457.688 74.2729 466.922 67.6636 466.922 57.6323C466.922 49.9448 462.797 45.9604 452.438 43.6167L442.734 41.5073C438.094 40.4292 435.844 38.6948 435.844 36.1167C435.844 32.7886 439.125 30.5854 444.047 30.5854C449.297 30.5854 452.719 33.1636 453 37.2417H465.656C465.469 27.3979 456.984 20.8823 444.234 20.8823C431.156 20.8823 422.625 27.2573 422.625 36.9604ZM482.766 73.9448C486.984 73.9448 490.312 70.5698 490.312 66.3979C490.312 62.1792 486.984 58.8511 482.766 58.8511C478.547 58.8511 475.219 62.1792 475.219 66.3979C475.219 70.5698 478.547 73.9448 482.766 73.9448Z" fill="url(#paint0_linear_3651_13925)"/>
<path d="M536.531 73.3823V46.7573H564.047V35.5542H536.531V17.4136H566.672V5.7417H522.375V73.3823H536.531ZM592.125 64.0073C587.156 64.0073 583.922 61.6167 583.922 57.8198C583.922 54.0229 586.969 51.7729 592.688 51.3979L603.516 50.6479V54.4448C603.516 60.0698 598.453 64.0073 592.125 64.0073ZM587.672 73.9917C594.281 73.9917 600.656 70.8042 603.469 65.4136H603.75V73.3823H616.969V37.9917C616.969 27.6792 608.297 20.8823 595.031 20.8823C582.141 20.8823 573.234 27.6792 572.859 37.5229H585.375C586.031 33.7729 589.5 31.1479 594.469 31.1479C600.094 31.1479 603.516 33.8667 603.516 38.8354V42.2573L590.625 43.0542C577.453 43.8511 570.281 49.1479 570.281 58.5229C570.281 67.7573 577.734 73.9917 587.672 73.9917ZM625.312 36.9604C625.312 44.5073 630.328 49.5229 640.031 51.7261L649.547 53.8823C654.234 55.0073 656.016 56.4136 656.016 59.0854C656.016 62.4604 652.688 64.5698 647.25 64.5698C641.578 64.5698 638.062 62.1323 637.406 57.7729H624.047C624.75 67.7104 633.281 74.2729 646.875 74.2729C660.375 74.2729 669.609 67.6636 669.609 57.6323C669.609 49.9448 665.484 45.9604 655.125 43.6167L645.422 41.5073C640.781 40.4292 638.531 38.6948 638.531 36.1167C638.531 32.7886 641.812 30.5854 646.734 30.5854C651.984 30.5854 655.406 33.1636 655.688 37.2417H668.344C668.156 27.3979 659.672 20.8823 646.922 20.8823C633.844 20.8823 625.312 27.2573 625.312 36.9604ZM680.391 10.2886V21.7729H673.406V32.1323H680.391V59.4604C680.391 69.5386 685.078 73.5698 697.031 73.5698C699.797 73.5698 702.234 73.2886 703.641 73.0073V62.8823C702.797 63.0229 701.438 63.1167 700.219 63.1167C696.047 63.1167 694.078 61.1948 694.078 57.2104V32.1323H703.641V21.7729H694.078V10.2886H680.391ZM720.234 73.9448C724.453 73.9448 727.781 70.5698 727.781 66.3979C727.781 62.1792 724.453 58.8511 720.234 58.8511C716.016 58.8511 712.688 62.1792 712.688 66.3979C712.688 70.5698 716.016 73.9448 720.234 73.9448ZM804.656 61.6636H774V44.6011H802.922V33.7261H774V17.4136H804.656V5.7417H759.844V73.3823H804.656V61.6636ZM833.344 64.0073C828.375 64.0073 825.141 61.6167 825.141 57.8198C825.141 54.0229 828.188 51.7729 833.906 51.3979L844.734 50.6479V54.4448C844.734 60.0698 839.672 64.0073 833.344 64.0073ZM828.891 73.9917C835.5 73.9917 841.875 70.8042 844.688 65.4136H844.969V73.3823H858.188V37.9917C858.188 27.6792 849.516 20.8823 836.25 20.8823C823.359 20.8823 814.453 27.6792 814.078 37.5229H826.594C827.25 33.7729 830.719 31.1479 835.688 31.1479C841.312 31.1479 844.734 33.8667 844.734 38.8354V42.2573L831.844 43.0542C818.672 43.8511 811.5 49.1479 811.5 58.5229C811.5 67.7573 818.953 73.9917 828.891 73.9917ZM866.531 36.9604C866.531 44.5073 871.547 49.5229 881.25 51.7261L890.766 53.8823C895.453 55.0073 897.234 56.4136 897.234 59.0854C897.234 62.4604 893.906 64.5698 888.469 64.5698C882.797 64.5698 879.281 62.1323 878.625 57.7729H865.266C865.969 67.7104 874.5 74.2729 888.094 74.2729C901.594 74.2729 910.828 67.6636 910.828 57.6323C910.828 49.9448 906.703 45.9604 896.344 43.6167L886.641 41.5073C882 40.4292 879.75 38.6948 879.75 36.1167C879.75 32.7886 883.031 30.5854 887.953 30.5854C893.203 30.5854 896.625 33.1636 896.906 37.2417H909.562C909.375 27.3979 900.891 20.8823 888.141 20.8823C875.062 20.8823 866.531 27.2573 866.531 36.9604ZM924.234 92.2261C937.125 92.2261 943.453 87.5854 947.859 74.4136L965.719 21.7729H951.281L940.078 62.2729H939.797L928.641 21.7729H913.641L931.734 73.7104L931.266 75.6792C930.188 79.8042 927.234 81.5854 922.125 81.5854C921.562 81.5854 919.5 81.5386 919.031 81.4448V92.0386C919.547 92.1323 923.719 92.2261 924.234 92.2261ZM973.266 73.9448C977.484 73.9448 980.812 70.5698 980.812 66.3979C980.812 62.1792 977.484 58.8511 973.266 58.8511C969.047 58.8511 965.719 62.1792 965.719 66.3979C965.719 70.5698 969.047 73.9448 973.266 73.9448ZM1010.34 54.1167C1010.77 66.8198 1021.12 74.5542 1037.39 74.5542C1054.17 74.5542 1064.81 66.2573 1064.81 53.1323C1064.81 42.8198 1058.91 37.0073 1045.36 34.1011L1037.16 32.3667C1029.38 30.5854 1026.09 28.2417 1026.09 24.0698C1026.09 19.0542 1030.78 15.7261 1037.77 15.7261C1044.84 15.7261 1049.86 19.1948 1050.33 24.9136H1063.59C1063.36 12.6792 1053.47 4.56982 1037.72 4.56982C1022.62 4.56982 1011.84 12.8198 1011.84 25.2886C1011.84 35.1792 1017.98 41.5073 1030.45 44.1792L1039.27 46.1011C1047.42 47.9292 1050.66 50.3667 1050.66 54.7729C1050.66 59.7417 1045.5 63.3511 1037.95 63.3511C1030.45 63.3511 1024.64 59.6948 1023.98 54.1167H1010.34ZM1095.56 31.1011C1101.89 31.1011 1106.3 35.5073 1106.53 42.2573H1084.27C1084.73 35.6479 1089.33 31.1011 1095.56 31.1011ZM1106.72 57.6323C1105.41 61.6167 1101.33 64.0542 1096.17 64.0542C1088.95 64.0542 1084.12 59.0386 1084.12 51.5854V50.7417H1119.75V46.5229C1119.75 30.8198 1110.28 20.8823 1095.42 20.8823C1080.28 20.8823 1070.62 31.3823 1070.62 47.7886C1070.62 64.1948 1080.23 74.2729 1095.94 74.2729C1108.5 74.2729 1117.83 67.6167 1119.33 57.6323H1106.72ZM1146.84 64.0073C1141.88 64.0073 1138.64 61.6167 1138.64 57.8198C1138.64 54.0229 1141.69 51.7729 1147.41 51.3979L1158.23 50.6479V54.4448C1158.23 60.0698 1153.17 64.0073 1146.84 64.0073ZM1142.39 73.9917C1149 73.9917 1155.38 70.8042 1158.19 65.4136H1158.47V73.3823H1171.69V37.9917C1171.69 27.6792 1163.02 20.8823 1149.75 20.8823C1136.86 20.8823 1127.95 27.6792 1127.58 37.5229H1140.09C1140.75 33.7729 1144.22 31.1479 1149.19 31.1479C1154.81 31.1479 1158.23 33.8667 1158.23 38.8354V42.2573L1145.34 43.0542C1132.17 43.8511 1125 49.1479 1125 58.5229C1125 67.7573 1132.45 73.9917 1142.39 73.9917ZM1180.92 73.3823H1194.61V42.3511C1194.61 36.4917 1198.36 32.3667 1203.75 32.3667C1209.05 32.3667 1212.23 35.6948 1212.23 41.2261V73.3823H1225.45V42.1636C1225.45 36.3042 1229.06 32.3667 1234.45 32.3667C1240.03 32.3667 1243.08 35.6948 1243.08 41.7417V73.3823H1256.77V38.3198C1256.77 27.9136 1249.97 21.0229 1239.84 21.0229C1232.34 21.0229 1226.16 25.1011 1223.81 31.5698H1223.53C1221.8 24.8198 1216.55 21.0229 1209.14 21.0229C1202.25 21.0229 1196.62 24.9136 1194.42 31.1479H1194.14V21.7729H1180.92V73.3823ZM1266.23 73.3823H1279.92V2.50732H1266.23V73.3823ZM1312.59 31.1011C1318.92 31.1011 1323.33 35.5073 1323.56 42.2573H1301.3C1301.77 35.6479 1306.36 31.1011 1312.59 31.1011ZM1323.75 57.6323C1322.44 61.6167 1318.36 64.0542 1313.2 64.0542C1305.98 64.0542 1301.16 59.0386 1301.16 51.5854V50.7417H1336.78V46.5229C1336.78 30.8198 1327.31 20.8823 1312.45 20.8823C1297.31 20.8823 1287.66 31.3823 1287.66 47.7886C1287.66 64.1948 1297.27 74.2729 1312.97 74.2729C1325.53 74.2729 1334.86 67.6167 1336.36 57.6323H1323.75ZM1343.25 36.9604C1343.25 44.5073 1348.27 49.5229 1357.97 51.7261L1367.48 53.8823C1372.17 55.0073 1373.95 56.4136 1373.95 59.0854C1373.95 62.4604 1370.62 64.5698 1365.19 64.5698C1359.52 64.5698 1356 62.1323 1355.34 57.7729H1341.98C1342.69 67.7104 1351.22 74.2729 1364.81 74.2729C1378.31 74.2729 1387.55 67.6636 1387.55 57.6323C1387.55 49.9448 1383.42 45.9604 1373.06 43.6167L1363.36 41.5073C1358.72 40.4292 1356.47 38.6948 1356.47 36.1167C1356.47 32.7886 1359.75 30.5854 1364.67 30.5854C1369.92 30.5854 1373.34 33.1636 1373.62 37.2417H1386.28C1386.09 27.3979 1377.61 20.8823 1364.86 20.8823C1351.78 20.8823 1343.25 27.2573 1343.25 36.9604ZM1393.78 36.9604C1393.78 44.5073 1398.8 49.5229 1408.5 51.7261L1418.02 53.8823C1422.7 55.0073 1424.48 56.4136 1424.48 59.0854C1424.48 62.4604 1421.16 64.5698 1415.72 64.5698C1410.05 64.5698 1406.53 62.1323 1405.88 57.7729H1392.52C1393.22 67.7104 1401.75 74.2729 1415.34 74.2729C1428.84 74.2729 1438.08 67.6636 1438.08 57.6323C1438.08 49.9448 1433.95 45.9604 1423.59 43.6167L1413.89 41.5073C1409.25 40.4292 1407 38.6948 1407 36.1167C1407 32.7886 1410.28 30.5854 1415.2 30.5854C1420.45 30.5854 1423.88 33.1636 1424.16 37.2417H1436.81C1436.62 27.3979 1428.14 20.8823 1415.39 20.8823C1402.31 20.8823 1393.78 27.2573 1393.78 36.9604Z" fill="black"/>
<defs>
<linearGradient id="paint0_linear_3651_13925" x1="721.5" y1="0.382324" x2="721.5" y2="100.595" gradientUnits="userSpaceOnUse">
<stop stop-color="#4D89FF"/>
<stop offset="0.286458" stop-color="#71AAFF" stop-opacity="0.63"/>
<stop offset="0.71875" stop-color="#356AF1" stop-opacity="0.733125"/>
<stop offset="1" stop-color="#5891FF" stop-opacity="0.81"/>
</linearGradient>
</defs>
</svg>
