<svg width="61" height="62" viewBox="0 0 61 62" fill="none" xmlns="http://www.w3.org/2000/svg">
<ellipse cx="30.5" cy="31.2997" rx="30.5" ry="30.7003" fill="url(#paint0_linear_3651_14052)"/>
<ellipse cx="30.5" cy="31.2997" rx="30.5" ry="30.7003" fill="url(#paint1_linear_3651_14052)"/>
<path d="M31.6873 45.6609L41.0303 24.3922C41.4617 23.4024 40.5165 22.3803 39.5047 22.7424L17.758 30.598C16.9296 30.8887 16.6855 31.9373 17.2742 32.5739L21.0876 36.7155C21.5022 37.1638 22.1883 37.2406 22.6834 36.8772L36.8378 26.7802L25.8093 40.2573C25.4219 40.7374 25.4488 41.4317 25.8634 41.88L29.6946 46.005C30.2832 46.6415 31.3398 46.4717 31.6873 45.6609Z" fill="#1D34FF"/>
<defs>
<linearGradient id="paint0_linear_3651_14052" x1="49.5" y1="-15.0024" x2="-0.515045" y2="81.8654" gradientUnits="userSpaceOnUse">
<stop stop-color="#55C2FF"/>
<stop offset="1" stop-color="white"/>
</linearGradient>
<linearGradient id="paint1_linear_3651_14052" x1="30.5" y1="0.599365" x2="30.5" y2="62" gradientUnits="userSpaceOnUse">
<stop stop-color="white"/>
<stop offset="1" stop-color="white" stop-opacity="0"/>
</linearGradient>
</defs>
</svg>
