<svg width="61" height="62" viewBox="0 0 61 62" fill="none" xmlns="http://www.w3.org/2000/svg">
<circle cx="30.5" cy="31.2471" r="30.5" fill="url(#paint0_linear_4122_13008)"/>
<circle cx="30.5" cy="31.2471" r="30.5" fill="url(#paint1_linear_4122_13008)"/>
<path d="M40.3783 16.7441C40.2134 16.7441 40.0553 16.81 39.9387 16.9272C39.8221 17.0444 39.7566 17.2034 39.7566 17.3692V19.9576C39.7561 20.4782 39.5502 20.9774 39.1842 21.3455C38.8181 21.7137 38.3217 21.9209 37.8039 21.9215H37.4557C36.9378 21.921 36.4412 21.714 36.075 21.3458C35.7088 20.9776 35.5028 20.4783 35.5023 19.9576C35.5012 19.1058 35.1641 18.2893 34.5651 17.6871C33.9661 17.0848 33.154 16.7459 32.3068 16.7448H32.1172C31.2699 16.7458 30.4576 17.0845 29.8585 17.6868C29.2593 18.2891 28.9222 19.1057 28.921 19.9576V20.1814L21.2487 26.0426C21.0933 26.1613 21 26.3426 21 26.5364V46.1196C21 46.4696 21.2798 46.7446 21.6217 46.7446H37.4625C37.8045 46.7446 38.0842 46.4696 38.0842 46.1196V26.5364C38.0842 26.3426 37.9972 26.1613 37.8418 26.0426L30.1638 20.1776V19.9576C30.1646 19.4371 30.3707 18.9382 30.7369 18.5702C31.1031 18.2023 31.5995 17.9954 32.1172 17.9949H32.3062C32.8238 17.9956 33.32 18.2025 33.686 18.5704C34.0521 18.9384 34.2581 19.4372 34.2589 19.9576C34.2598 20.8096 34.5967 21.6266 35.1959 22.2291C35.7951 22.8317 36.6076 23.1707 37.4551 23.1717H37.8039C38.6513 23.1707 39.4638 22.8317 40.063 22.2291C40.6622 21.6266 40.9992 20.8096 41 19.9576V17.3698C41 17.2041 40.9345 17.0451 40.8179 16.9278C40.7013 16.8106 40.5432 16.7441 40.3783 16.7441ZM32.6568 28.3803C32.6568 30.1055 31.258 31.5119 29.5421 31.5119C27.8262 31.5119 26.4274 30.1055 26.4274 28.3803C26.4287 27.6586 26.6773 26.9593 27.1314 26.4003C27.5855 25.8413 28.2173 25.4567 28.9204 25.3112V28.379C28.9204 28.5448 28.9859 28.7038 29.1025 28.821C29.2191 28.9383 29.3772 29.0041 29.5421 29.0041C29.707 29.0041 29.8651 28.9383 29.9817 28.821C30.0983 28.7038 30.1638 28.5448 30.1638 28.379V25.3119C30.8668 25.4573 31.4986 25.8418 31.9526 26.4007C32.4067 26.9596 32.6554 27.6587 32.6568 28.3803Z" fill="#1D34FF"/>
<defs>
<linearGradient id="paint0_linear_4122_13008" x1="49.5" y1="-14.7529" x2="-3.52278e-06" y2="81.7471" gradientUnits="userSpaceOnUse">
<stop stop-color="#55C2FF"/>
<stop offset="1" stop-color="white"/>
</linearGradient>
<linearGradient id="paint1_linear_4122_13008" x1="30.5" y1="0.74707" x2="30.5" y2="61.7471" gradientUnits="userSpaceOnUse">
<stop stop-color="white"/>
<stop offset="1" stop-color="white" stop-opacity="0"/>
</linearGradient>
</defs>
</svg>
