<svg width="61" height="62" viewBox="0 0 61 62" fill="none" xmlns="http://www.w3.org/2000/svg">
<circle cx="30.5" cy="31.0884" r="30.5" fill="url(#paint0_linear_4122_13007)"/>
<circle cx="30.5" cy="31.0884" r="30.5" fill="url(#paint1_linear_4122_13007)"/>
<path d="M26 21.5892H24C24.077 21.036 24.351 20.5292 24.7717 20.1618C25.1924 19.7944 25.7315 19.5911 26.29 19.5892H26.52C26.8481 18.6761 27.4602 17.8921 28.2664 17.3522C29.0727 16.8123 30.0307 16.5449 31 16.5892C31.9643 16.5514 32.9156 16.8218 33.7157 17.3613C34.5159 17.9007 35.1234 18.6811 35.45 19.5892H35.68C36.2437 19.5838 36.79 19.7839 37.217 20.1519C37.6439 20.52 37.9223 21.0309 38 21.5892H36V24.5192C35.9422 24.5627 35.8723 24.5871 35.8 24.5892H26.2C26.1335 24.5955 26.0665 24.5955 26 24.5892V21.5892Z" fill="#1D34FF"/>
<path d="M38.78 21.5886H38C38 21.6986 38 21.7986 38 21.9086V24.5886C37.9715 25.1448 37.7242 25.6672 37.3121 26.0419C36.9 26.4166 36.3564 26.6131 35.8 26.5886H26.2C25.6436 26.6131 25.1 26.4166 24.6879 26.0419C24.2758 25.6672 24.0285 25.1448 24 24.5886V21.9086C24 21.7986 24 21.6986 24 21.5886H23.22C22.3958 21.5616 21.5943 21.862 20.9909 22.4241C20.3876 22.9863 20.0313 23.7645 20 24.5886V43.5886C20.0313 44.4127 20.3876 45.1909 20.9909 45.753C21.5943 46.3152 22.3958 46.6156 23.22 46.5886H38.78C39.6042 46.6156 40.4057 46.3152 41.0091 45.753C41.6124 45.1909 41.9687 44.4127 42 43.5886V24.5886C41.9687 23.7645 41.6124 22.9863 41.0091 22.4241C40.4057 21.862 39.6042 21.5616 38.78 21.5886ZM27 39.7986V40.4886C27.0001 40.5135 26.991 40.5375 26.9743 40.556C26.9577 40.5745 26.9348 40.5861 26.91 40.5886H26C25.91 40.5886 25.91 40.5086 25.91 39.7886C25.3306 39.7113 24.805 39.4086 24.4474 38.9461C24.0898 38.4837 23.929 37.8988 24 37.3186C23.9999 37.2911 24.0101 37.2645 24.0286 37.2441C24.0471 37.2238 24.0726 37.2111 24.1 37.2086L25.62 37.1186C25.69 37.1186 25.73 37.1186 25.75 37.2586C25.83 37.6686 26.03 37.9286 26.3 37.9286C26.3358 37.93 26.3716 37.924 26.405 37.9109C26.4384 37.8978 26.4687 37.878 26.494 37.8526C26.5194 37.8273 26.5392 37.797 26.5523 37.7636C26.5654 37.7302 26.5714 37.6944 26.57 37.6586C26.57 37.3486 26.28 37.0886 25.33 36.3986C24.9879 36.1735 24.706 35.868 24.5091 35.509C24.3121 35.1499 24.206 34.7481 24.2 34.3386C24.1977 33.8432 24.3682 33.3624 24.6821 32.9791C24.9961 32.5958 25.4338 32.334 25.92 32.2386V31.5886C25.92 31.5286 25.92 31.4786 26 31.4786H26.88C26.97 31.4786 26.97 31.5586 26.97 32.2586C27.479 32.3555 27.9372 32.6297 28.2631 33.0325C28.589 33.4353 28.7615 33.9406 28.75 34.4586C28.75 34.4931 28.7363 34.5261 28.7119 34.5505C28.6875 34.5749 28.6545 34.5886 28.62 34.5886L27 34.6686C26.92 34.6686 26.7 34.2086 26.61 34.2086C26.5872 34.2084 26.5646 34.2131 26.5438 34.2224C26.5229 34.2316 26.5043 34.2452 26.4892 34.2623C26.474 34.2793 26.4627 34.2994 26.4559 34.3212C26.4492 34.343 26.4471 34.366 26.45 34.3886C26.45 34.6786 26.85 34.9786 27.65 35.5886C27.9881 35.8043 28.2686 36.0992 28.4672 36.4477C28.6659 36.7961 28.7766 37.1877 28.79 37.5886C28.8209 38.1138 28.6544 38.6316 28.3233 39.0405C27.9921 39.4493 27.5202 39.7197 27 39.7986ZM37 39.5886H32C31.7348 39.5886 31.4804 39.4832 31.2929 39.2957C31.1054 39.1082 31 38.8538 31 38.5886C31 38.3234 31.1054 38.069 31.2929 37.8815C31.4804 37.694 31.7348 37.5886 32 37.5886H37C37.2652 37.5886 37.5196 37.694 37.7071 37.8815C37.8946 38.069 38 38.3234 38 38.5886C38 38.8538 37.8946 39.1082 37.7071 39.2957C37.5196 39.4832 37.2652 39.5886 37 39.5886ZM37 35.5886H32C31.7348 35.5886 31.4804 35.4832 31.2929 35.2957C31.1054 35.1082 31 34.8538 31 34.5886C31 34.3234 31.1054 34.069 31.2929 33.8815C31.4804 33.6939 31.7348 33.5886 32 33.5886H37C37.2652 33.5886 37.5196 33.6939 37.7071 33.8815C37.8946 34.069 38 34.3234 38 34.5886C38 34.8538 37.8946 35.1082 37.7071 35.2957C37.5196 35.4832 37.2652 35.5886 37 35.5886ZM37 31.5886H29C28.7348 31.5886 28.4804 31.4832 28.2929 31.2957C28.1054 31.1082 28 30.8538 28 30.5886C28 30.3234 28.1054 30.069 28.2929 29.8815C28.4804 29.6939 28.7348 29.5886 29 29.5886H37C37.2652 29.5886 37.5196 29.6939 37.7071 29.8815C37.8946 30.069 38 30.3234 38 30.5886C38 30.8538 37.8946 31.1082 37.7071 31.2957C37.5196 31.4832 37.2652 31.5886 37 31.5886Z" fill="#1D34FF"/>
<defs>
<linearGradient id="paint0_linear_4122_13007" x1="49.5" y1="-14.9116" x2="-3.52278e-06" y2="81.5884" gradientUnits="userSpaceOnUse">
<stop stop-color="#55C2FF"/>
<stop offset="1" stop-color="white"/>
</linearGradient>
<linearGradient id="paint1_linear_4122_13007" x1="30.5" y1="0.588379" x2="30.5" y2="61.5884" gradientUnits="userSpaceOnUse">
<stop stop-color="white"/>
<stop offset="1" stop-color="white" stop-opacity="0"/>
</linearGradient>
</defs>
</svg>
