<svg width="61" height="62" viewBox="0 0 61 62" fill="none" xmlns="http://www.w3.org/2000/svg">
<circle cx="30.5" cy="30.7114" r="30.5" fill="url(#paint0_linear_3651_14044)"/>
<circle cx="30.5" cy="30.7114" r="30.5" fill="url(#paint1_linear_3651_14044)"/>
<path d="M27.4151 33.1349L23.4151 26.5993C23.3693 26.5251 23.3075 26.4644 23.2352 26.4224C23.1628 26.3804 23.0821 26.3584 23.0001 26.3584C22.9181 26.3584 22.8373 26.3804 22.7649 26.4224C22.6926 26.4644 22.6308 26.5251 22.5851 26.5993L18.5851 33.1349C18.5412 33.2177 18.5181 33.3116 18.5181 33.4072C18.5181 33.5028 18.5412 33.5967 18.5851 33.6795C18.6242 33.7646 18.6831 33.837 18.7559 33.8895C18.8287 33.9421 18.9129 33.973 19.0001 33.9791H21.0001V47.0503C21.0001 47.1947 21.0527 47.3333 21.1465 47.4354C21.2403 47.5375 21.3674 47.5949 21.5001 47.5949H24.5001C24.6327 47.5949 24.7598 47.5375 24.8536 47.4354C24.9474 47.3333 25.0001 47.1947 25.0001 47.0503V33.9791H27.0001C27.0905 33.9788 27.1792 33.9518 27.2567 33.901C27.3342 33.8501 27.3975 33.7774 27.4401 33.6904C27.4821 33.6039 27.502 33.5067 27.4976 33.4089C27.4932 33.3111 27.4647 33.2165 27.4151 33.1349ZM43.4151 33.1349L39.4151 26.5993C39.3693 26.5251 39.3075 26.4644 39.2352 26.4224C39.1628 26.3804 39.0821 26.3584 39.0001 26.3584C38.9181 26.3584 38.8373 26.3804 38.7649 26.4224C38.6926 26.4644 38.6308 26.5251 38.5851 26.5993L34.5851 33.1349C34.5373 33.2152 34.5099 33.3079 34.5055 33.4035C34.5011 33.4991 34.5199 33.5943 34.5601 33.6795C34.6012 33.7685 34.664 33.8435 34.7416 33.8963C34.8192 33.9491 34.9086 33.9777 35.0001 33.9791H37.0001V47.0503C37.0001 47.1947 37.0527 47.3333 37.1465 47.4354C37.2403 47.5375 37.3674 47.5949 37.5001 47.5949H40.5001C40.6327 47.5949 40.7598 47.5375 40.8536 47.4354C40.9474 47.3333 41.0001 47.1947 41.0001 47.0503V33.9791H43.0001C43.0905 33.9788 43.1792 33.9518 43.2567 33.901C43.3342 33.8501 43.3975 33.7774 43.4401 33.6904C43.4821 33.6039 43.502 33.5067 43.4976 33.4089C43.4932 33.3111 43.4647 33.2165 43.4151 33.1349Z" fill="#1D34FF"/>
<path d="M35.415 38.5811L31.415 32.0455C31.3693 31.9714 31.3075 31.9106 31.2351 31.8686C31.1627 31.8266 31.082 31.8047 31 31.8047C30.918 31.8047 30.8373 31.8266 30.7649 31.8686C30.6925 31.9106 30.6307 31.9714 30.585 32.0455L26.585 38.5811C26.5373 38.6615 26.5098 38.7542 26.5054 38.8498C26.501 38.9454 26.5199 39.0406 26.56 39.1258C26.6012 39.2148 26.664 39.2898 26.7415 39.3426C26.8191 39.3954 26.9085 39.424 27 39.4253H29V47.0502C29 47.1946 29.0527 47.3332 29.1464 47.4353C29.2402 47.5374 29.3674 47.5948 29.5 47.5948H32.5C32.6326 47.5948 32.7598 47.5374 32.8536 47.4353C32.9473 47.3332 33 47.1946 33 47.0502V39.4253H35C35.0905 39.425 35.1791 39.3981 35.2566 39.3472C35.3341 39.2964 35.3975 39.2236 35.44 39.1367C35.482 39.0502 35.5019 38.9529 35.4975 38.8552C35.4931 38.7574 35.4646 38.6627 35.415 38.5811ZM31 18.1846C29.9122 18.1846 28.8488 18.5359 27.9444 19.1942C27.0399 19.8525 26.3349 20.7882 25.9187 21.8829C25.5024 22.9776 25.3935 24.1822 25.6057 25.3443C25.8179 26.5065 26.3417 27.574 27.1109 28.4118C27.8801 29.2497 28.8601 29.8202 29.927 30.0514C30.9939 30.2826 32.0998 30.1639 33.1048 29.7105C34.1098 29.257 34.9687 28.4892 35.5731 27.504C36.1774 26.5187 36.5 25.3605 36.5 24.1755C36.5 22.5866 35.9205 21.0628 34.8891 19.9393C33.8576 18.8158 32.4587 18.1846 31 18.1846ZM33.855 27.2854C33.8085 27.3365 33.7532 27.377 33.6923 27.4046C33.6314 27.4323 33.566 27.4465 33.5 27.4465C33.434 27.4465 33.3686 27.4323 33.3077 27.4046C33.2468 27.377 33.1915 27.3365 33.145 27.2854L31.885 25.9075C31.6462 25.6604 31.3294 25.5226 31 25.5226C30.6706 25.5226 30.3538 25.6604 30.115 25.9075L28.855 27.2854C28.8084 27.3362 28.753 27.3765 28.6921 27.404C28.6312 27.4314 28.5659 27.4456 28.5 27.4456C28.4341 27.4456 28.3688 27.4314 28.3079 27.404C28.247 27.3765 28.1916 27.3362 28.145 27.2854C28.0984 27.2346 28.0614 27.1743 28.0362 27.108C28.0109 27.0416 27.998 26.9705 27.998 26.8987C27.998 26.8269 28.0109 26.7558 28.0362 26.6894C28.0614 26.6231 28.0984 26.5628 28.145 26.512L29.41 25.1396C29.6186 24.9116 29.8664 24.7308 30.1392 24.6074C30.4121 24.484 30.7046 24.4205 31 24.4205C31.2954 24.4205 31.5879 24.484 31.8608 24.6074C32.1336 24.7308 32.3814 24.9116 32.59 25.1396L33.855 26.512C33.9019 26.5627 33.9391 26.6229 33.9644 26.6893C33.9898 26.7556 34.0029 26.8268 34.0029 26.8987C34.0029 26.9706 33.9898 27.0418 33.9644 27.1082C33.9391 27.1745 33.9019 27.2348 33.855 27.2854ZM33.855 21.8391L32.59 23.2115C32.3814 23.4395 32.1336 23.6203 31.8608 23.7437C31.5879 23.8671 31.2954 23.9306 31 23.9306C30.7046 23.9306 30.4121 23.8671 30.1392 23.7437C29.8664 23.6203 29.6186 23.4395 29.41 23.2115L28.145 21.8391C28.0984 21.7883 28.0614 21.728 28.0362 21.6617C28.0109 21.5953 27.998 21.5242 27.998 21.4524C27.998 21.3073 28.0509 21.1682 28.145 21.0657C28.2392 20.9631 28.3669 20.9055 28.5 20.9055C28.5659 20.9055 28.6312 20.9197 28.6921 20.9471C28.753 20.9746 28.8084 21.0149 28.855 21.0657L30.115 22.4436C30.3538 22.6907 30.6706 22.8285 31 22.8285C31.3294 22.8285 31.6462 22.6907 31.885 22.4436L33.145 21.0657C33.2392 20.9631 33.3669 20.9055 33.5 20.9055C33.6332 20.9055 33.7608 20.9631 33.855 21.0657C33.9492 21.1682 34.002 21.3073 34.002 21.4524C34.002 21.5974 33.9492 21.7365 33.855 21.8391Z" fill="#1D34FF"/>
<defs>
<linearGradient id="paint0_linear_3651_14044" x1="49.5" y1="-15.2886" x2="-3.52278e-06" y2="81.2114" gradientUnits="userSpaceOnUse">
<stop stop-color="#55C2FF"/>
<stop offset="1" stop-color="white"/>
</linearGradient>
<linearGradient id="paint1_linear_3651_14044" x1="30.5" y1="0.211426" x2="30.5" y2="61.2114" gradientUnits="userSpaceOnUse">
<stop stop-color="white"/>
<stop offset="1" stop-color="white" stop-opacity="0"/>
</linearGradient>
</defs>
</svg>
