<svg width="957" height="243" viewBox="0 0 957 243" fill="none" xmlns="http://www.w3.org/2000/svg">
<g filter="url(#filter0_b_4122_13010)">
<ellipse cx="570.5" cy="163.593" rx="71.5" ry="78.4273" fill="#FDFDFD"/>
</g>
<g filter="url(#filter1_b_4122_13010)">
<ellipse cx="672.5" cy="97.6928" rx="42.5" ry="46.2939" fill="#FDFDFD"/>
</g>
<g filter="url(#filter2_b_4122_13010)">
<ellipse cx="321.5" cy="56.3003" rx="42.5" ry="46.2939" fill="#FDFDFD"/>
</g>
<g filter="url(#filter3_b_4122_13010)">
<ellipse cx="26" cy="213.7" rx="26" ry="28.321" fill="#FDFDFD"/>
</g>
<g filter="url(#filter4_b_4122_13010)">
<ellipse cx="748.5" cy="46.497" rx="42.5" ry="46.2939" fill="#FDFDFD"/>
</g>
<g filter="url(#filter5_b_4122_13010)">
<ellipse cx="914.5" cy="194.638" rx="42.5" ry="46.2939" fill="#FDFDFD"/>
</g>
<g filter="url(#filter6_b_4122_13010)">
<ellipse cx="474.5" cy="82.4428" rx="42.5" ry="46.2939" fill="#FDFDFD"/>
</g>
<g filter="url(#filter7_b_4122_13010)">
<ellipse cx="397.5" cy="98.2373" rx="33.5" ry="37.0351" fill="#FDFDFD"/>
</g>
<g filter="url(#filter8_b_4122_13010)">
<ellipse cx="254.5" cy="102.05" rx="33.5" ry="36.4905" fill="#FDFDFD"/>
</g>
<g filter="url(#filter9_b_4122_13010)">
<ellipse cx="179" cy="125.469" rx="21" ry="22.8746" fill="#FDFDFD"/>
</g>
<g filter="url(#filter10_b_4122_13010)">
<ellipse cx="330.5" cy="172.852" rx="61.5" ry="66.99" fill="#FDFDFD"/>
</g>
<path d="M344.361 168.95L320.101 145.671L314.17 180.296L332.534 184.923L344.361 168.95Z" fill="#DFDFDF"/>
<path d="M337.904 201.898L345.271 171.826L333.415 187.726L315.08 183.172L337.904 201.898Z" fill="#DFDFDF"/>
<path d="M762.655 50.1189L756.484 14.9909L731.942 38.7603L744.038 54.9209L762.655 50.1189Z" fill="#DFDFDF"/>
<path d="M738.65 72.1863L761.743 53.0442L743.144 57.7689L731.03 41.6855L738.65 72.1863Z" fill="#DFDFDF"/>
<g filter="url(#filter11_b_4122_13010)">
<ellipse cx="107" cy="172.852" rx="62" ry="66.99" fill="#FDFDFD"/>
</g>
<g filter="url(#filter12_b_4122_13010)">
<ellipse cx="684.5" cy="195.182" rx="43.5" ry="46.8385" fill="#FDFDFD"/>
</g>
<g filter="url(#filter13_b_4122_13010)">
<ellipse cx="448.214" cy="187.79" rx="48.2138" ry="52.5177" fill="#FDFDFD"/>
</g>
<path d="M447.951 214.908C461.846 214.908 473.11 202.639 473.11 187.503C473.11 172.367 461.846 160.098 447.951 160.098C434.056 160.098 422.792 172.367 422.792 187.503C422.792 202.639 434.056 214.908 447.951 214.908Z" fill="#DFDFDF"/>
<path d="M441.125 173.496C441.998 173.755 442.871 173.928 443.744 174.187C444.617 174.446 445.49 174.619 446.363 174.879C446.601 174.965 446.681 174.879 446.76 174.619C447.077 173.15 447.395 171.767 447.712 170.297C447.792 170.038 447.871 169.951 448.109 170.038C448.903 170.297 449.617 170.47 450.411 170.643C450.649 170.729 450.649 170.816 450.569 170.989C450.252 172.372 449.935 173.841 449.617 175.224C449.617 175.311 449.617 175.397 449.538 175.57C450.173 175.743 450.887 175.916 451.522 176.089C451.601 176.089 451.681 175.916 451.76 175.83C451.998 174.706 452.236 173.668 452.554 172.545L452.792 171.507C452.792 171.334 452.871 171.248 453.03 171.334C453.824 171.594 454.617 171.767 455.49 172.026C455.57 172.026 455.57 172.112 455.649 172.112C455.411 173.236 455.173 174.274 454.935 175.311C454.855 175.743 454.776 176.175 454.617 176.608C454.538 176.867 454.617 176.953 454.855 177.04L457.474 178.336C458.268 178.855 458.982 179.547 459.538 180.411C460.252 181.708 460.332 183.091 460.014 184.474C459.776 185.425 459.459 186.289 458.824 186.981C458.347 187.499 457.713 187.845 457.078 188.105C456.998 188.105 456.919 188.191 456.76 188.191C457.078 188.45 457.395 188.623 457.713 188.883C458.665 189.661 459.3 190.611 459.617 191.822C459.776 192.773 459.697 193.81 459.459 194.761C459.141 195.971 458.744 197.008 458.03 197.959C457.157 199.083 456.046 199.688 454.776 199.861C453.109 200.12 451.522 199.947 449.935 199.688C449.696 199.602 449.538 199.688 449.458 199.947C449.141 201.33 448.823 202.8 448.506 204.183C448.427 204.529 448.427 204.615 448.03 204.442C447.315 204.27 446.522 204.01 445.807 203.837C445.569 203.751 445.569 203.664 445.649 203.492C445.966 202.022 446.284 200.552 446.681 199.169C446.681 198.996 446.76 198.91 446.601 198.824C445.966 198.651 445.331 198.478 444.617 198.305C444.458 199.083 444.22 199.861 444.061 200.639C443.903 201.417 443.665 202.195 443.506 202.973C443.426 203.146 443.426 203.232 443.188 203.146C442.395 202.886 441.601 202.714 440.807 202.541C440.569 202.454 440.569 202.368 440.649 202.195C440.966 200.725 441.284 199.256 441.68 197.873C441.68 197.786 441.76 197.7 441.76 197.527C439.934 197.008 438.109 196.49 436.204 195.971C436.363 195.625 436.442 195.366 436.601 195.02C436.918 194.242 437.236 193.464 437.474 192.773C437.553 192.513 437.633 192.513 437.871 192.513C438.426 192.686 439.061 192.859 439.617 192.945C440.252 193.118 440.728 192.773 440.807 192.167C441.839 187.759 442.871 183.35 443.823 178.855C443.982 178.164 443.585 177.386 442.871 177.126C442.157 176.867 441.442 176.694 440.807 176.521C440.649 176.521 440.569 176.435 440.649 176.262C440.887 175.311 441.125 174.274 441.363 173.323C441.045 173.582 441.045 173.582 441.125 173.496ZM445.173 194.847C445.252 194.847 445.331 194.934 445.331 194.934C446.601 195.279 447.95 195.712 449.3 195.798C450.252 195.885 451.125 195.885 451.998 195.539C453.506 195.02 454.141 192.859 453.268 191.476C452.871 190.784 452.236 190.352 451.601 189.92C450.173 189.055 448.506 188.71 446.919 188.364C446.681 188.277 446.681 188.364 446.601 188.623C446.442 189.488 446.204 190.266 446.046 191.13C445.728 192.34 445.49 193.551 445.173 194.847ZM451.839 186.03C451.998 186.03 452.395 185.943 452.712 185.857C454.22 185.511 455.014 183.609 454.22 182.14C453.824 181.362 453.109 180.843 452.395 180.497C451.284 179.979 450.173 179.72 448.982 179.374C448.744 179.287 448.665 179.374 448.585 179.633C448.188 181.448 447.792 183.177 447.315 184.993C447.236 185.165 447.315 185.252 447.474 185.338C447.792 185.425 448.03 185.511 448.347 185.598C449.538 185.771 450.569 186.03 451.839 186.03Z" fill="white"/>
<g filter="url(#filter14_b_4122_13010)">
<ellipse cx="220.5" cy="187.557" rx="48.5" ry="52.2849" fill="#FDFDFD"/>
</g>
<g filter="url(#filter15_b_4122_13010)">
<ellipse cx="799.882" cy="163.465" rx="71.8824" ry="78.2992" fill="#FDFDFD"/>
</g>
<path d="M800.321 211.201C824.286 211.201 843.713 190.039 843.713 163.935C843.713 137.831 824.286 116.669 800.321 116.669C776.356 116.669 756.928 137.831 756.928 163.935C756.928 190.039 776.356 211.201 800.321 211.201Z" fill="#DFDFDF"/>
<path d="M788.549 139.788C790.055 140.236 791.56 140.534 793.066 140.981C794.572 141.429 796.077 141.727 797.583 142.174C797.994 142.323 798.131 142.174 798.268 141.727C798.815 139.192 799.363 136.806 799.91 134.271C800.047 133.824 800.184 133.675 800.595 133.824C801.964 134.271 803.195 134.57 804.564 134.868C804.975 135.017 804.975 135.166 804.838 135.464C804.291 137.85 803.743 140.385 803.195 142.77C803.195 142.92 803.195 143.069 803.059 143.367C804.154 143.665 805.386 143.963 806.481 144.262C806.618 144.262 806.754 143.963 806.891 143.814C807.302 141.876 807.713 140.087 808.26 138.148L808.671 136.359C808.671 136.061 808.808 135.911 809.082 136.061C810.45 136.508 811.819 136.806 813.325 137.253C813.462 137.253 813.462 137.403 813.599 137.403C813.188 139.341 812.777 141.13 812.367 142.92C812.23 143.665 812.093 144.411 811.819 145.156C811.682 145.604 811.819 145.753 812.23 145.902L816.747 148.138C818.116 149.033 819.348 150.226 820.306 151.717C821.538 153.954 821.675 156.339 821.127 158.725C820.717 160.365 820.169 161.856 819.074 163.049C818.253 163.944 817.158 164.54 816.063 164.988C815.926 164.988 815.789 165.137 815.515 165.137C816.063 165.584 816.61 165.882 817.158 166.33C818.8 167.672 819.895 169.312 820.443 171.399C820.717 173.039 820.58 174.829 820.169 176.469C819.622 178.556 818.937 180.346 817.705 181.986C816.2 183.924 814.283 184.968 812.093 185.266C809.218 185.714 806.481 185.415 803.743 184.968C803.332 184.819 803.059 184.968 802.922 185.415C802.374 187.801 801.827 190.336 801.279 192.722C801.142 193.318 801.142 193.467 800.458 193.169C799.226 192.871 797.857 192.424 796.625 192.125C796.214 191.976 796.214 191.827 796.351 191.529C796.899 188.994 797.446 186.459 798.131 184.073C798.131 183.775 798.268 183.626 797.994 183.477C796.899 183.179 795.804 182.881 794.572 182.582C794.298 183.924 793.887 185.266 793.614 186.608C793.34 187.95 792.929 189.292 792.655 190.634C792.519 190.932 792.519 191.082 792.108 190.932C790.739 190.485 789.37 190.187 788.001 189.889C787.591 189.74 787.591 189.59 787.728 189.292C788.275 186.757 788.823 184.223 789.507 181.837C789.507 181.688 789.644 181.539 789.644 181.24C786.496 180.346 783.347 179.451 780.062 178.556C780.336 177.96 780.473 177.513 780.746 176.916C781.294 175.574 781.842 174.232 782.252 173.039C782.389 172.592 782.526 172.592 782.937 172.592C783.895 172.89 784.99 173.189 785.948 173.338C787.043 173.636 787.864 173.039 788.001 171.996C789.781 164.391 791.56 156.787 793.203 149.033C793.477 147.84 792.792 146.498 791.56 146.051C790.328 145.604 789.096 145.305 788.001 145.007C787.728 145.007 787.591 144.858 787.728 144.56C788.138 142.92 788.549 141.13 788.96 139.49C788.412 139.937 788.412 139.937 788.549 139.788ZM795.53 176.618C795.667 176.618 795.804 176.767 795.804 176.767C797.994 177.364 800.321 178.109 802.648 178.258C804.291 178.407 805.796 178.407 807.302 177.811C809.903 176.916 810.998 173.189 809.492 170.803C808.808 169.61 807.713 168.864 806.618 168.119C804.154 166.628 801.279 166.031 798.541 165.435C798.131 165.286 798.131 165.435 797.994 165.882C797.72 167.373 797.309 168.715 797.036 170.206C796.488 172.294 796.077 174.381 795.53 176.618ZM807.028 161.409C807.302 161.409 807.986 161.26 808.534 161.111C811.135 160.514 812.504 157.234 811.135 154.699C810.45 153.357 809.218 152.463 807.986 151.866C806.07 150.971 804.154 150.524 802.1 149.928C801.69 149.779 801.553 149.928 801.416 150.375C800.732 153.506 800.047 156.488 799.226 159.62C799.089 159.918 799.226 160.067 799.5 160.216C800.047 160.365 800.458 160.514 801.005 160.663C803.059 160.962 804.838 161.409 807.028 161.409Z" fill="white"/>
<path d="M493.881 87.542C490.609 97.8795 481.066 103.92 471.483 102.355C470.258 102.156 469.033 101.831 467.819 101.376C466.485 100.875 465.23 100.239 464.061 99.4871C455.844 94.2057 451.889 83.1938 455.119 72.9873C456.9 67.3598 460.541 63.0042 465.035 60.4583C465.295 60.3102 465.558 60.169 465.824 60.0335C470.476 57.6656 475.943 57.1871 481.181 59.1538C486.419 61.1205 490.454 65.1675 492.778 70.1547C492.833 70.2718 492.887 70.3903 492.94 70.5084C495.229 75.6397 495.723 81.7224 493.881 87.542Z" fill="#DFDFDF"/>
<path d="M478.028 78.709L479.05 75.4802L486.107 78.13L487.696 73.1075L468.416 65.868L466.827 70.8905L473.883 73.5401L472.857 76.7814C467.058 74.9551 462.381 74.6385 461.893 76.1784C461.406 77.7183 465.269 80.6085 470.87 83.0629L467.685 93.125C468.497 93.6449 469.369 94.0847 470.294 94.4322C471.136 94.7484 471.987 94.9744 472.836 95.1147L476.032 85.0153C481.943 86.9092 486.743 87.2561 487.237 85.695C487.731 84.1338 483.754 81.1848 478.028 78.709ZM473.937 82.9213C467.579 80.5338 462.751 77.5665 463.154 76.2933C463.498 75.2063 467.543 75.7055 472.674 77.3604L471.506 81.0523C472.321 81.5071 473.163 81.8982 474.026 82.2222C474.889 82.5464 475.774 82.8038 476.672 82.9923L477.844 79.2891C482.946 81.4583 486.528 83.8348 486.179 84.9389C485.776 86.2121 480.295 85.3086 473.937 82.9213Z" fill="white"/>
<path d="M39.5432 213.804C39.5432 220.977 34.8102 226.945 28.5603 228.206C27.7617 228.368 26.9378 228.452 26.0958 228.452C25.1704 228.452 24.267 228.35 23.3943 228.156C17.2623 226.794 12.6484 220.886 12.6484 213.804C12.6484 209.899 14.0514 206.35 16.3385 203.725C16.4708 203.573 16.6063 203.424 16.7446 203.278C19.1646 200.726 22.4617 199.156 26.0958 199.156C29.7299 199.156 33.027 200.726 35.4469 203.278C35.504 203.338 35.5606 203.399 35.6166 203.46C38.0431 206.109 39.5432 209.766 39.5432 213.804Z" fill="#DFDFDF"/>
<path d="M27.9782 212.018V209.777H32.8748V206.292H19.4973V209.777H24.3934V212.026C20.4384 212.244 17.4756 213.137 17.4756 214.206C17.4756 215.274 20.4384 216.167 24.3934 216.385V223.366C24.999 223.5 25.6259 223.569 26.2681 223.569C26.8524 223.569 27.4241 223.512 27.9782 223.401V216.393C32.0155 216.191 35.0606 215.289 35.0606 214.206C35.0606 213.122 32.0155 212.22 27.9782 212.018ZM26.2681 215.583C21.8564 215.583 18.28 214.867 18.28 213.983C18.28 213.229 20.8863 212.597 24.3935 212.428V214.99C24.988 215.082 25.5871 215.128 26.1859 215.128C26.785 215.128 27.3841 215.082 27.9783 214.99V212.42C31.568 212.577 34.2559 213.217 34.2559 213.983C34.2558 214.867 30.6794 215.583 26.2681 215.583Z" fill="white"/>
<path d="M74.9816 160.808C67.0881 179.722 74.7941 202.109 92.1581 210.707C109.522 219.305 130.074 210.911 137.967 191.997C145.861 173.083 138.155 150.697 120.791 142.099C103.427 133.501 82.8751 141.894 74.9816 160.808ZM91.7239 171.368L101.134 170.326L111.249 154.722C111.999 153.561 113.481 153.272 114.536 154.106C115.601 154.923 115.854 156.527 115.104 157.687L107.358 169.634L113.457 168.959C114.751 168.813 115.912 169.84 116.043 171.255C116.174 172.664 115.232 173.928 113.936 174.069L103.751 175.197L97.555 184.754L114.819 190.902C116.05 191.346 116.732 192.79 116.331 194.141C115.923 195.49 114.594 196.224 113.355 195.784L93.0536 188.553C92.9696 188.523 92.8868 188.49 92.8095 188.451C92.214 188.156 91.7533 187.605 91.5472 186.923C91.3112 186.148 91.4273 185.298 91.8578 184.631L97.5269 175.889L92.2029 176.478C91.7724 176.525 91.3573 176.443 90.988 176.26C90.2493 175.895 89.7038 175.124 89.6169 174.182C89.4861 172.773 90.4283 171.509 91.7239 171.368Z" fill="#DFDFDF"/>
<g clip-path="url(#clip0_4122_13010)">
<path d="M686.5 219.146C699.479 219.146 710 207.686 710 193.548C710 179.411 699.479 167.951 686.5 167.951C673.521 167.951 663 179.411 663 193.548C663 207.686 673.521 219.146 686.5 219.146Z" fill="#DFDFDF"/>
<path d="M690.57 179.591C689.706 180.143 688.989 180.931 688.491 181.877C687.992 182.823 687.729 183.895 687.727 184.986C687.727 186.135 688.146 187.284 688.678 188.311C689.096 189.232 689.314 190.837 687.832 191.635C686.777 192.328 685.408 191.863 684.78 190.714C684.144 189.793 683.411 188.881 682.461 188.188C681.601 187.624 680.617 187.326 679.614 187.326C678.611 187.326 677.627 187.624 676.767 188.188C675.902 188.739 675.185 189.526 674.686 190.473C674.187 191.419 673.925 192.491 673.925 193.583C673.925 194.674 674.187 195.746 674.686 196.693C675.185 197.639 675.902 198.427 676.767 198.977C677.627 199.541 678.611 199.839 679.614 199.839C680.617 199.839 681.601 199.541 682.461 198.977C683.411 198.407 684.144 197.486 684.675 196.451C685.094 195.644 686.254 194.618 687.727 195.53C688.782 196.223 689.097 197.714 688.573 198.854C688.05 199.89 687.727 201.039 687.727 202.179C687.729 203.27 687.992 204.342 688.491 205.288C688.989 206.234 689.706 207.022 690.57 207.574C691.43 208.138 692.414 208.436 693.417 208.436C694.42 208.436 695.404 208.138 696.264 207.574C697.129 207.023 697.846 206.236 698.345 205.289C698.844 204.343 699.106 203.271 699.106 202.179C699.106 201.088 698.844 200.016 698.345 199.069C697.846 198.123 697.129 197.335 696.264 196.785C695.313 196.215 694.259 195.978 693.099 195.978C692.149 195.978 690.884 195.285 690.884 193.565C690.884 192.188 691.835 191.153 693.099 191.153C694.154 191.153 695.313 190.925 696.264 190.346C697.129 189.796 697.846 189.008 698.345 188.062C698.844 187.115 699.106 186.043 699.106 184.952C699.106 183.86 698.844 182.788 698.345 181.842C697.846 180.895 697.129 180.108 696.264 179.557C695.418 178.987 694.364 178.75 693.421 178.75C692.463 178.785 691.408 179.013 690.57 179.592" fill="white"/>
</g>
<g clip-path="url(#clip1_4122_13010)">
<path d="M317.5 80.8089C330.479 80.8089 341 69.3484 341 55.2111C341 41.0738 330.479 29.6133 317.5 29.6133C304.521 29.6133 294 41.0738 294 55.2111C294 69.3484 304.521 80.8089 317.5 80.8089Z" fill="#DFDFDF"/>
<path d="M321.57 41.254C320.706 41.8057 319.989 42.5937 319.491 43.5399C318.992 44.4861 318.729 45.5578 318.727 46.6488C318.727 47.7979 319.146 48.9471 319.678 49.9734C320.096 50.8944 320.314 52.4997 318.832 53.298C317.777 53.9909 316.408 53.5261 315.78 52.377C315.144 51.4559 314.411 50.5436 313.461 49.8507C312.601 49.2868 311.617 48.9889 310.614 48.9889C309.611 48.9889 308.627 49.2868 307.767 49.8507C306.902 50.4012 306.185 51.1888 305.686 52.1353C305.187 53.0817 304.925 54.154 304.925 55.2452C304.925 56.3365 305.187 57.4087 305.686 58.3552C306.185 59.3016 306.902 60.0893 307.767 60.6398C308.627 61.2036 309.611 61.5016 310.614 61.5016C311.617 61.5016 312.601 61.2036 313.461 60.6398C314.411 60.0698 315.144 59.1485 315.675 58.1135C316.094 57.3064 317.254 56.2801 318.727 57.1925C319.782 57.8854 320.097 59.3767 319.573 60.5171C319.05 61.5522 318.727 62.7013 318.727 63.8417C318.729 64.9327 318.992 66.0043 319.491 66.9506C319.989 67.8968 320.706 68.6847 321.57 69.2364C322.43 69.8003 323.414 70.0982 324.417 70.0982C325.42 70.0982 326.404 69.8003 327.264 69.2364C328.129 68.686 328.846 67.8983 329.345 66.9518C329.844 66.0054 330.106 64.9332 330.106 63.8419C330.106 62.7506 329.844 61.6784 329.345 60.732C328.846 59.7855 328.129 58.9978 327.264 58.4474C326.313 57.8774 325.259 57.6403 324.099 57.6403C323.149 57.6403 321.884 56.9474 321.884 55.228C321.884 53.8508 322.835 52.8157 324.099 52.8157C325.154 52.8157 326.313 52.5877 327.264 52.0087C328.129 51.4582 328.846 50.6706 329.345 49.7241C329.844 48.7776 330.106 47.7054 330.106 46.6142C330.106 45.5229 329.844 44.4507 329.345 43.5042C328.846 42.5578 328.129 41.7701 327.264 41.2196C326.418 40.6497 325.364 40.4126 324.421 40.4126C323.463 40.4477 322.408 40.6758 321.57 41.2547" fill="white"/>
</g>
<g clip-path="url(#clip2_4122_13010)">
<path d="M914 221.324C927.255 221.324 938 209.62 938 195.182C938 180.744 927.255 169.04 914 169.04C900.745 169.04 890 180.744 890 195.182C890 209.62 900.745 221.324 914 221.324Z" fill="#DFDFDF"/>
<path d="M918.157 180.928C917.274 181.491 916.542 182.296 916.033 183.262C915.524 184.229 915.255 185.323 915.253 186.437C915.253 187.611 915.681 188.784 916.224 189.833C916.652 190.773 916.874 192.413 915.36 193.228C914.283 193.936 912.885 193.461 912.243 192.287C911.594 191.347 910.845 190.415 909.875 189.707C908.997 189.131 907.992 188.827 906.967 188.827C905.943 188.827 904.938 189.131 904.06 189.707C903.177 190.269 902.444 191.074 901.935 192.04C901.425 193.007 901.157 194.102 901.157 195.217C901.157 196.331 901.425 197.426 901.935 198.393C902.444 199.359 903.177 200.164 904.06 200.726C904.938 201.302 905.943 201.606 906.967 201.606C907.992 201.606 908.997 201.302 909.875 200.726C910.845 200.144 911.594 199.203 912.136 198.146C912.564 197.322 913.749 196.274 915.254 197.205C916.331 197.913 916.652 199.436 916.117 200.601C915.583 201.658 915.254 202.831 915.254 203.996C915.255 205.11 915.524 206.205 916.033 207.171C916.542 208.137 917.274 208.942 918.157 209.505C919.034 210.081 920.04 210.386 921.064 210.386C922.089 210.386 923.094 210.081 923.971 209.505C924.855 208.943 925.588 208.139 926.097 207.172C926.606 206.206 926.874 205.111 926.874 203.996C926.874 202.882 926.606 201.787 926.097 200.82C925.588 199.853 924.855 199.049 923.971 198.487C923.001 197.905 921.924 197.663 920.739 197.663C919.769 197.663 918.478 196.955 918.478 195.199C918.478 193.793 919.448 192.735 920.739 192.735C921.817 192.735 923.001 192.502 923.971 191.911C924.855 191.349 925.588 190.545 926.097 189.578C926.606 188.611 926.874 187.516 926.874 186.402C926.874 185.287 926.606 184.192 926.097 183.226C925.588 182.259 924.855 181.455 923.971 180.893C923.108 180.31 922.031 180.068 921.068 180.068C920.089 180.104 919.012 180.337 918.157 180.928" fill="white"/>
</g>
<g clip-path="url(#clip3_4122_13010)">
<path d="M614.336 168.71C613.051 177.854 609.279 186.374 603.496 193.19C597.713 200.006 590.18 204.813 581.849 207.001C573.518 209.189 564.765 208.661 556.697 205.483C548.628 202.305 541.608 196.62 536.524 189.148C531.44 181.676 528.52 172.753 528.136 163.508C527.751 154.262 529.918 145.11 534.362 137.21C538.806 129.311 545.328 123.018 553.103 119.128C560.877 115.239 569.554 113.927 578.035 115.36C583.661 116.301 589.063 118.427 593.933 121.618C598.803 124.809 603.045 129.002 606.416 133.956C609.787 138.911 612.222 144.531 613.581 150.494C614.94 156.457 615.196 162.647 614.336 168.71ZM563.193 157.504C566.634 155.393 567.653 153.702 567.647 150.496C567.677 149.176 567.336 147.877 566.669 146.768C566.003 145.658 565.041 144.791 563.912 144.28C559.278 141.913 554.173 142.068 549.13 140.913L545.113 168.746C545.05 169.183 544.987 169.619 544.998 170.67C550.216 171.233 555.323 172.068 560.467 172.269C561.911 172.311 563.323 171.821 564.471 170.881C565.619 169.94 566.435 168.605 566.784 167.095C567.934 163.368 566.872 160.485 563.193 157.504ZM573.378 159.248L571.156 174.644L577.049 175.653L579.249 160.409L585.493 161.478L583.285 176.779L588.932 177.746L591.909 157.118L580.088 155.093C580.761 150.429 583.403 150.105 590.18 153.732L592.898 149.885C591.183 148.403 589.2 147.324 587.078 146.716C584.955 146.109 582.74 145.986 580.574 146.356C576.585 147.014 574.79 150.087 574.054 154.06L571.169 153.819L570.477 158.616L573.378 159.248Z" fill="#DFDFDF"/>
<path d="M563.193 157.504C566.872 160.485 567.935 163.367 566.786 167.076C566.438 168.586 565.622 169.921 564.474 170.862C563.326 171.802 561.914 172.292 560.47 172.25C555.326 172.049 550.219 171.214 545.001 170.651C545.058 169.631 545.05 169.183 545.116 168.727L549.127 140.932C554.17 142.087 559.276 141.932 563.909 144.299C565.037 144.808 565.996 145.672 566.663 146.778C567.33 147.883 567.673 149.179 567.647 150.496C567.653 153.702 566.634 155.393 563.193 157.504ZM551.841 166.091C553.761 166.556 555.706 166.889 557.664 167.088C558.059 167.114 558.455 167.056 558.829 166.917C559.203 166.778 559.548 166.56 559.843 166.277C560.139 165.994 560.379 165.65 560.551 165.266C560.723 164.881 560.822 164.464 560.844 164.038C561.04 163.208 560.927 162.327 560.529 161.584C560.131 160.84 559.48 160.293 558.714 160.06C556.809 159.459 554.877 158.966 552.925 158.582L551.841 166.091ZM553.645 153.596C555.173 153.947 556.717 154.211 558.271 154.388C558.625 154.439 558.985 154.413 559.329 154.311C559.673 154.209 559.994 154.034 560.274 153.796C560.554 153.557 560.786 153.261 560.958 152.924C561.129 152.586 561.236 152.215 561.272 151.832C561.368 151.439 561.389 151.029 561.332 150.626C561.276 150.224 561.143 149.838 560.943 149.492C560.743 149.146 560.479 148.849 560.169 148.617C559.858 148.385 559.506 148.224 559.136 148.144C557.621 147.787 556.088 147.525 554.545 147.358L553.645 153.596Z" fill="white"/>
<path d="M573.377 159.248L570.432 158.55L571.116 153.81L574.001 154.051C574.79 150.087 576.585 147.014 580.521 146.347C582.687 145.977 584.902 146.1 587.025 146.707C589.147 147.315 591.13 148.394 592.846 149.876L590.127 153.723C583.351 150.096 580.673 150.414 580.035 155.084L591.856 157.109L588.879 177.737L583.285 176.779L585.493 161.478L579.248 160.409L577.04 175.71L571.147 174.701L573.377 159.248Z" fill="white"/>
<path d="M551.842 166.09L552.936 158.506C554.888 158.89 556.82 159.383 558.725 159.983C559.491 160.217 560.142 160.764 560.54 161.508C560.938 162.251 561.051 163.132 560.855 163.962C560.833 164.388 560.734 164.805 560.562 165.19C560.39 165.574 560.15 165.917 559.854 166.201C559.559 166.484 559.214 166.702 558.84 166.841C558.466 166.98 558.07 167.038 557.675 167.011C555.715 166.838 553.766 166.531 551.842 166.09Z" fill="#DFDFDF"/>
<path d="M553.68 153.602L554.591 147.288C556.134 147.455 557.667 147.717 559.182 148.074C559.552 148.154 559.904 148.315 560.214 148.547C560.525 148.779 560.789 149.076 560.989 149.422C561.189 149.768 561.321 150.154 561.378 150.556C561.434 150.959 561.414 151.369 561.317 151.762C561.282 152.145 561.175 152.516 561.003 152.854C560.832 153.191 560.6 153.487 560.32 153.726C560.04 153.964 559.719 154.139 559.375 154.241C559.031 154.343 558.671 154.369 558.317 154.318C556.761 154.166 555.213 153.927 553.68 153.602Z" fill="#DFDFDF"/>
</g>
<g clip-path="url(#clip4_4122_13010)">
<path d="M250.71 185.088C251.321 191.615 250.122 198.196 247.264 203.996C244.406 209.796 240.018 214.556 234.656 217.672C229.293 220.788 223.196 222.121 217.138 221.502C211.079 220.883 205.33 218.34 200.62 214.194C195.909 210.049 192.448 204.487 190.674 198.214C188.9 191.94 188.894 185.237 190.656 178.952C192.418 172.666 195.868 167.082 200.571 162.906C205.274 158.729 211.018 156.148 217.075 155.489C221.092 155.045 225.148 155.458 229.013 156.706C232.877 157.954 236.474 160.011 239.598 162.76C242.722 165.509 245.311 168.895 247.218 172.727C249.124 176.558 250.311 180.758 250.71 185.088ZM213.765 187.301C215.783 185.185 216.206 183.826 215.679 181.626C215.484 180.714 215.038 179.888 214.399 179.255C213.76 178.623 212.959 178.214 212.099 178.082C208.532 177.354 205.051 178.45 201.4 178.633L203.186 198.522C203.214 198.834 203.242 199.145 203.421 199.865C207.096 199.241 210.739 198.825 214.304 197.967C215.302 197.716 216.192 197.106 216.826 196.238C217.461 195.369 217.803 194.295 217.796 193.19C217.978 190.408 216.778 188.635 213.765 187.301ZM221.043 186.525L222.031 197.526L226.241 197.078L225.263 186.185L229.725 185.71L230.707 196.643L234.742 196.213L233.418 181.473L224.972 182.373C224.672 179.04 226.434 178.305 231.679 179.483L232.917 176.315C231.498 175.63 229.96 175.273 228.403 175.267C226.847 175.261 225.306 175.606 223.879 176.279C221.248 177.503 220.517 179.961 220.66 182.832L218.64 183.225L218.948 186.653L221.043 186.525Z" fill="#DFDFDF"/>
<path d="M213.765 187.301C216.778 188.635 217.978 190.408 217.795 193.177C217.802 194.281 217.46 195.356 216.826 196.224C216.191 197.092 215.301 197.702 214.303 197.953C210.738 198.812 207.095 199.227 203.42 199.851C203.293 199.14 203.215 198.834 203.186 198.509L201.402 178.647C205.053 178.463 208.533 177.367 212.101 178.095C212.958 178.227 213.758 178.634 214.397 179.264C215.035 179.894 215.482 180.717 215.679 181.626C216.207 183.826 215.783 185.185 213.765 187.301ZM207.373 195.395C208.767 195.343 210.157 195.195 211.534 194.952C211.809 194.893 212.072 194.777 212.306 194.609C212.54 194.441 212.741 194.225 212.898 193.973C213.054 193.721 213.163 193.439 213.218 193.142C213.274 192.845 213.274 192.539 213.219 192.242C213.218 191.634 212.997 191.051 212.602 190.618C212.208 190.184 211.671 189.935 211.107 189.923C209.701 189.88 208.294 189.916 206.891 190.03L207.373 195.395ZM206.571 186.467C207.678 186.412 208.781 186.294 209.877 186.115C210.128 186.081 210.371 185.993 210.591 185.857C210.81 185.72 211.002 185.538 211.156 185.32C211.309 185.102 211.42 184.853 211.483 184.589C211.545 184.324 211.558 184.048 211.52 183.779C211.522 183.49 211.469 183.204 211.365 182.939C211.26 182.673 211.106 182.434 210.912 182.235C210.719 182.037 210.489 181.883 210.238 181.784C209.986 181.685 209.719 181.643 209.452 181.66C208.353 181.708 207.257 181.825 206.171 182.01L206.571 186.467Z" fill="white"/>
<path d="M221.043 186.525L218.907 186.616L218.602 183.229L220.623 182.836C220.517 179.961 221.248 177.503 223.841 176.283C225.268 175.609 226.81 175.264 228.366 175.271C229.923 175.277 231.46 175.634 232.88 176.319L231.642 179.487C226.396 178.309 224.61 179.046 224.934 182.376L233.381 181.476L234.705 196.217L230.708 196.643L229.726 185.709L225.264 186.185L226.245 197.118L222.035 197.567L221.043 186.525Z" fill="white"/>
<path d="M207.373 195.395L206.886 189.976C208.289 189.861 209.696 189.825 211.102 189.868C211.666 189.88 212.203 190.13 212.597 190.563C212.992 190.997 213.213 191.579 213.214 192.187C213.269 192.484 213.269 192.79 213.213 193.087C213.158 193.384 213.049 193.667 212.893 193.919C212.736 194.17 212.535 194.386 212.301 194.554C212.067 194.722 211.804 194.839 211.529 194.897C210.154 195.158 208.766 195.324 207.373 195.395Z" fill="#DFDFDF"/>
<path d="M206.596 186.464L206.191 181.952C207.278 181.768 208.373 181.651 209.472 181.603C209.739 181.586 210.007 181.628 210.258 181.727C210.509 181.826 210.739 181.98 210.933 182.178C211.126 182.377 211.28 182.616 211.385 182.882C211.489 183.147 211.542 183.433 211.54 183.721C211.578 183.991 211.565 184.267 211.503 184.531C211.44 184.796 211.329 185.045 211.176 185.263C211.023 185.48 210.831 185.663 210.611 185.8C210.391 185.936 210.149 186.024 209.897 186.058C208.804 186.255 207.702 186.39 206.596 186.464Z" fill="#DFDFDF"/>
</g>
<defs>
<filter id="filter0_b_4122_13010" x="495" y="81.166" width="151" height="164.854" filterUnits="userSpaceOnUse" color-interpolation-filters="sRGB">
<feFlood flood-opacity="0" result="BackgroundImageFix"/>
<feGaussianBlur in="BackgroundImageFix" stdDeviation="2"/>
<feComposite in2="SourceAlpha" operator="in" result="effect1_backgroundBlur_4122_13010"/>
<feBlend mode="normal" in="SourceGraphic" in2="effect1_backgroundBlur_4122_13010" result="shape"/>
</filter>
<filter id="filter1_b_4122_13010" x="626" y="47.3989" width="93" height="100.588" filterUnits="userSpaceOnUse" color-interpolation-filters="sRGB">
<feFlood flood-opacity="0" result="BackgroundImageFix"/>
<feGaussianBlur in="BackgroundImageFix" stdDeviation="2"/>
<feComposite in2="SourceAlpha" operator="in" result="effect1_backgroundBlur_4122_13010"/>
<feBlend mode="normal" in="SourceGraphic" in2="effect1_backgroundBlur_4122_13010" result="shape"/>
</filter>
<filter id="filter2_b_4122_13010" x="275" y="6.00635" width="93" height="100.588" filterUnits="userSpaceOnUse" color-interpolation-filters="sRGB">
<feFlood flood-opacity="0" result="BackgroundImageFix"/>
<feGaussianBlur in="BackgroundImageFix" stdDeviation="2"/>
<feComposite in2="SourceAlpha" operator="in" result="effect1_backgroundBlur_4122_13010"/>
<feBlend mode="normal" in="SourceGraphic" in2="effect1_backgroundBlur_4122_13010" result="shape"/>
</filter>
<filter id="filter3_b_4122_13010" x="-4" y="181.379" width="60" height="64.6421" filterUnits="userSpaceOnUse" color-interpolation-filters="sRGB">
<feFlood flood-opacity="0" result="BackgroundImageFix"/>
<feGaussianBlur in="BackgroundImageFix" stdDeviation="2"/>
<feComposite in2="SourceAlpha" operator="in" result="effect1_backgroundBlur_4122_13010"/>
<feBlend mode="normal" in="SourceGraphic" in2="effect1_backgroundBlur_4122_13010" result="shape"/>
</filter>
<filter id="filter4_b_4122_13010" x="702" y="-3.79688" width="93" height="100.588" filterUnits="userSpaceOnUse" color-interpolation-filters="sRGB">
<feFlood flood-opacity="0" result="BackgroundImageFix"/>
<feGaussianBlur in="BackgroundImageFix" stdDeviation="2"/>
<feComposite in2="SourceAlpha" operator="in" result="effect1_backgroundBlur_4122_13010"/>
<feBlend mode="normal" in="SourceGraphic" in2="effect1_backgroundBlur_4122_13010" result="shape"/>
</filter>
<filter id="filter5_b_4122_13010" x="868" y="144.344" width="93" height="100.588" filterUnits="userSpaceOnUse" color-interpolation-filters="sRGB">
<feFlood flood-opacity="0" result="BackgroundImageFix"/>
<feGaussianBlur in="BackgroundImageFix" stdDeviation="2"/>
<feComposite in2="SourceAlpha" operator="in" result="effect1_backgroundBlur_4122_13010"/>
<feBlend mode="normal" in="SourceGraphic" in2="effect1_backgroundBlur_4122_13010" result="shape"/>
</filter>
<filter id="filter6_b_4122_13010" x="428" y="32.1489" width="93" height="100.588" filterUnits="userSpaceOnUse" color-interpolation-filters="sRGB">
<feFlood flood-opacity="0" result="BackgroundImageFix"/>
<feGaussianBlur in="BackgroundImageFix" stdDeviation="2"/>
<feComposite in2="SourceAlpha" operator="in" result="effect1_backgroundBlur_4122_13010"/>
<feBlend mode="normal" in="SourceGraphic" in2="effect1_backgroundBlur_4122_13010" result="shape"/>
</filter>
<filter id="filter7_b_4122_13010" x="360" y="57.2021" width="75" height="82.0703" filterUnits="userSpaceOnUse" color-interpolation-filters="sRGB">
<feFlood flood-opacity="0" result="BackgroundImageFix"/>
<feGaussianBlur in="BackgroundImageFix" stdDeviation="2"/>
<feComposite in2="SourceAlpha" operator="in" result="effect1_backgroundBlur_4122_13010"/>
<feBlend mode="normal" in="SourceGraphic" in2="effect1_backgroundBlur_4122_13010" result="shape"/>
</filter>
<filter id="filter8_b_4122_13010" x="217" y="61.5591" width="75" height="80.981" filterUnits="userSpaceOnUse" color-interpolation-filters="sRGB">
<feFlood flood-opacity="0" result="BackgroundImageFix"/>
<feGaussianBlur in="BackgroundImageFix" stdDeviation="2"/>
<feComposite in2="SourceAlpha" operator="in" result="effect1_backgroundBlur_4122_13010"/>
<feBlend mode="normal" in="SourceGraphic" in2="effect1_backgroundBlur_4122_13010" result="shape"/>
</filter>
<filter id="filter9_b_4122_13010" x="154" y="98.5942" width="50" height="53.7495" filterUnits="userSpaceOnUse" color-interpolation-filters="sRGB">
<feFlood flood-opacity="0" result="BackgroundImageFix"/>
<feGaussianBlur in="BackgroundImageFix" stdDeviation="2"/>
<feComposite in2="SourceAlpha" operator="in" result="effect1_backgroundBlur_4122_13010"/>
<feBlend mode="normal" in="SourceGraphic" in2="effect1_backgroundBlur_4122_13010" result="shape"/>
</filter>
<filter id="filter10_b_4122_13010" x="265" y="101.862" width="131" height="141.98" filterUnits="userSpaceOnUse" color-interpolation-filters="sRGB">
<feFlood flood-opacity="0" result="BackgroundImageFix"/>
<feGaussianBlur in="BackgroundImageFix" stdDeviation="2"/>
<feComposite in2="SourceAlpha" operator="in" result="effect1_backgroundBlur_4122_13010"/>
<feBlend mode="normal" in="SourceGraphic" in2="effect1_backgroundBlur_4122_13010" result="shape"/>
</filter>
<filter id="filter11_b_4122_13010" x="41" y="101.862" width="132" height="141.98" filterUnits="userSpaceOnUse" color-interpolation-filters="sRGB">
<feFlood flood-opacity="0" result="BackgroundImageFix"/>
<feGaussianBlur in="BackgroundImageFix" stdDeviation="2"/>
<feComposite in2="SourceAlpha" operator="in" result="effect1_backgroundBlur_4122_13010"/>
<feBlend mode="normal" in="SourceGraphic" in2="effect1_backgroundBlur_4122_13010" result="shape"/>
</filter>
<filter id="filter12_b_4122_13010" x="637" y="144.344" width="95" height="101.677" filterUnits="userSpaceOnUse" color-interpolation-filters="sRGB">
<feFlood flood-opacity="0" result="BackgroundImageFix"/>
<feGaussianBlur in="BackgroundImageFix" stdDeviation="2"/>
<feComposite in2="SourceAlpha" operator="in" result="effect1_backgroundBlur_4122_13010"/>
<feBlend mode="normal" in="SourceGraphic" in2="effect1_backgroundBlur_4122_13010" result="shape"/>
</filter>
<filter id="filter13_b_4122_13010" x="396" y="131.272" width="104.428" height="113.036" filterUnits="userSpaceOnUse" color-interpolation-filters="sRGB">
<feFlood flood-opacity="0" result="BackgroundImageFix"/>
<feGaussianBlur in="BackgroundImageFix" stdDeviation="2"/>
<feComposite in2="SourceAlpha" operator="in" result="effect1_backgroundBlur_4122_13010"/>
<feBlend mode="normal" in="SourceGraphic" in2="effect1_backgroundBlur_4122_13010" result="shape"/>
</filter>
<filter id="filter14_b_4122_13010" x="168" y="131.272" width="105" height="112.57" filterUnits="userSpaceOnUse" color-interpolation-filters="sRGB">
<feFlood flood-opacity="0" result="BackgroundImageFix"/>
<feGaussianBlur in="BackgroundImageFix" stdDeviation="2"/>
<feComposite in2="SourceAlpha" operator="in" result="effect1_backgroundBlur_4122_13010"/>
<feBlend mode="normal" in="SourceGraphic" in2="effect1_backgroundBlur_4122_13010" result="shape"/>
</filter>
<filter id="filter15_b_4122_13010" x="724" y="81.166" width="151.765" height="164.598" filterUnits="userSpaceOnUse" color-interpolation-filters="sRGB">
<feFlood flood-opacity="0" result="BackgroundImageFix"/>
<feGaussianBlur in="BackgroundImageFix" stdDeviation="2"/>
<feComposite in2="SourceAlpha" operator="in" result="effect1_backgroundBlur_4122_13010"/>
<feBlend mode="normal" in="SourceGraphic" in2="effect1_backgroundBlur_4122_13010" result="shape"/>
</filter>
<clipPath id="clip0_4122_13010">
<rect width="47" height="51.1956" fill="white" transform="translate(663 167.951)"/>
</clipPath>
<clipPath id="clip1_4122_13010">
<rect width="47" height="51.1956" fill="white" transform="translate(294 29.6133)"/>
</clipPath>
<clipPath id="clip2_4122_13010">
<rect width="48" height="52.2849" fill="white" transform="translate(890 169.04)"/>
</clipPath>
<clipPath id="clip3_4122_13010">
<rect width="86.9308" height="93.0422" fill="white" transform="matrix(0.985654 0.168781 -0.142841 0.989746 535.29 108.041)"/>
</clipPath>
<clipPath id="clip4_4122_13010">
<rect width="61.5738" height="66.0684" fill="white" transform="matrix(0.994371 -0.105951 0.0894419 0.995992 186.531 158.743)"/>
</clipPath>
</defs>
</svg>
