<svg width="61" height="62" viewBox="0 0 61 62" fill="none" xmlns="http://www.w3.org/2000/svg">
<circle cx="30.5" cy="31.0469" r="30.5" fill="url(#paint0_linear_4122_13005)"/>
<circle cx="30.5" cy="31.0469" r="30.5" fill="url(#paint1_linear_4122_13005)"/>
<path d="M30.9954 45.5496C15.5262 39.4796 17.743 25.1599 18.6706 21.5469H43.3202C44.2479 25.1599 46.5129 39.4676 30.9954 45.5496ZM33.405 28.773C33.4004 28.312 33.2636 27.862 33.0109 27.4765C32.7581 27.0909 32.4 26.7859 31.979 26.5978C31.558 26.4096 31.0919 26.3462 30.6359 26.415C30.1799 26.4838 29.7533 26.682 29.4066 26.9859C29.0599 27.2899 28.8078 27.687 28.6802 28.13C28.5525 28.5729 28.5547 29.0432 28.6865 29.485C28.8182 29.9267 29.074 30.3214 29.4235 30.6222C29.773 30.9229 30.2015 31.1171 30.6581 31.1817L28.5859 38.4078H33.405L31.3328 31.1817C31.9117 31.0999 32.4412 30.8104 32.8224 30.3672C33.2037 29.9241 33.4107 29.3575 33.405 28.773Z" fill="#1D34FF"/>
<defs>
<linearGradient id="paint0_linear_4122_13005" x1="49.5" y1="-14.9531" x2="-3.52278e-06" y2="81.5469" gradientUnits="userSpaceOnUse">
<stop stop-color="#55C2FF"/>
<stop offset="1" stop-color="white"/>
</linearGradient>
<linearGradient id="paint1_linear_4122_13005" x1="30.5" y1="0.546875" x2="30.5" y2="61.5469" gradientUnits="userSpaceOnUse">
<stop stop-color="white"/>
<stop offset="1" stop-color="white" stop-opacity="0"/>
</linearGradient>
</defs>
</svg>
