<svg width="92" height="92" viewBox="0 0 92 92" fill="none" xmlns="http://www.w3.org/2000/svg">
<circle cx="46" cy="46" r="46" fill="#DAFFBC"/>
<path d="M57.4546 44.2707V36.8081C57.4546 30.3138 52.3 25.0002 46 25.0002C42.9648 25.0092 40.0563 26.2562 37.9101 28.4686C35.7638 30.6811 34.5542 33.6792 34.5455 36.8081V44.2707C32.9469 46.6165 32 49.4688 32 52.5519C31.9975 54.8205 32.5138 57.0578 33.5071 59.0821C34.5004 61.1065 35.9426 62.861 37.7168 64.2032C39.4909 65.5454 41.5471 66.4376 43.7184 66.8073C45.8896 67.177 48.1149 67.0139 50.2135 66.3311C52.3122 65.6483 54.2252 64.4652 55.7972 62.8776C57.3692 61.2901 58.5561 59.3429 59.2614 57.194C59.9668 55.0451 60.1708 52.755 59.8568 50.5096C59.5429 48.2643 58.7199 46.1268 57.4546 44.2707ZM39.6364 36.8081C39.6364 33.2002 42.5 30.2482 46 30.2482C49.5 30.2482 52.3636 33.2002 52.3636 36.8081V39.7076C50.3947 38.6656 48.2133 38.1221 46 38.1221C43.7867 38.1221 41.6053 38.6656 39.6364 39.7076V36.8081ZM43.4215 59.7731L37.0909 53.2893L39.6364 50.6653L43.3706 54.533L52.3636 45.4174L54.9091 48.0413L43.4215 59.7731Z" fill="#00BC13"/>
</svg>
