<svg width="61" height="62" viewBox="0 0 61 62" fill="none" xmlns="http://www.w3.org/2000/svg">
<circle cx="30.5" cy="30.9297" r="30.5" fill="url(#paint0_linear_4122_13006)"/>
<circle cx="30.5" cy="30.9297" r="30.5" fill="url(#paint1_linear_4122_13006)"/>
<path d="M21.2417 44.2681H36.1417C36.471 44.2681 36.7868 44.1373 37.0196 43.9044C37.2525 43.6716 37.3833 43.3558 37.3833 43.0265V20.6776C37.3833 20.3483 37.2525 20.0325 37.0196 19.7997C36.7868 19.5668 36.471 19.436 36.1417 19.436H21.2417C20.9124 19.436 20.5965 19.5668 20.3637 19.7997C20.1308 20.0325 20 20.3483 20 20.6776V43.0265C20 43.3558 20.1308 43.6716 20.3637 43.9044C20.5965 44.1373 20.9124 44.2681 21.2417 44.2681ZM27.45 40.5433H24.9667V38.0601H27.45V40.5433ZM27.45 36.8185H24.9667V34.3353H27.45V36.8185ZM32.4167 40.5433H29.9333V38.0601H32.4167V40.5433ZM32.4167 36.8185H29.9333V34.3353H32.4167V36.8185ZM23.725 24.4024C23.725 24.0731 23.8558 23.7573 24.0887 23.5245C24.3215 23.2917 24.6374 23.1608 24.9667 23.1608H32.4167C32.746 23.1608 33.0618 23.2917 33.2946 23.5245C33.5275 23.7573 33.6583 24.0731 33.6583 24.4024V30.6104C33.6583 30.9397 33.5275 31.2555 33.2946 31.4884C33.0618 31.7212 32.746 31.8521 32.4167 31.8521H24.9667C24.6374 31.8521 24.3215 31.7212 24.0887 31.4884C23.8558 31.2555 23.725 30.9397 23.725 30.6104V24.4024ZM44.8333 40.5433V30.6104C44.8333 30.2812 44.7025 29.9654 44.4696 29.7325C44.2368 29.4997 43.921 29.3688 43.5916 29.3688H38.625V33.0937H42.35V35.5769H38.625V41.7849H43.5916C43.921 41.7849 44.2368 41.6541 44.4696 41.4212C44.7025 41.1884 44.8333 40.8726 44.8333 40.5433Z" fill="#1D34FF"/>
<path d="M31.175 25.6353H26.2085V29.3594H31.175V25.6353Z" fill="#1D34FF"/>
<defs>
<linearGradient id="paint0_linear_4122_13006" x1="49.5" y1="-15.0703" x2="-3.52278e-06" y2="81.4297" gradientUnits="userSpaceOnUse">
<stop stop-color="#55C2FF"/>
<stop offset="1" stop-color="white"/>
</linearGradient>
<linearGradient id="paint1_linear_4122_13006" x1="30.5" y1="0.429687" x2="30.5" y2="61.4297" gradientUnits="userSpaceOnUse">
<stop stop-color="white"/>
<stop offset="1" stop-color="white" stop-opacity="0"/>
</linearGradient>
</defs>
</svg>
