<svg width="61" height="62" viewBox="0 0 61 62" fill="none" xmlns="http://www.w3.org/2000/svg">
<circle cx="30.5" cy="31.3345" r="30.5" fill="url(#paint0_linear_4122_13004)"/>
<circle cx="30.5" cy="31.3345" r="30.5" fill="url(#paint1_linear_4122_13004)"/>
<path d="M31 34.4907C32.7862 34.4907 34.5323 33.9611 36.0175 32.9687C37.5027 31.9763 38.6602 30.5658 39.3438 28.9156C40.0273 27.2653 40.2062 25.4495 39.8577 23.6976C39.5092 21.9457 38.6491 20.3365 37.3861 19.0734C36.123 17.8104 34.5138 16.9502 32.7619 16.6018C31.01 16.2533 29.1941 16.4321 27.5439 17.1157C25.8936 17.7992 24.4832 18.9568 23.4908 20.442C22.4984 21.9272 21.9688 23.6733 21.9688 25.4595C21.9688 27.8547 22.9203 30.1518 24.6139 31.8455C26.3076 33.5392 28.6048 34.4907 31 34.4907ZM31 18.5532C32.3659 18.5532 33.7012 18.9583 34.8369 19.7171C35.9726 20.476 36.8578 21.5546 37.3805 22.8166C37.9033 24.0785 38.04 25.4671 37.7735 26.8068C37.5071 28.1465 36.8493 29.3771 35.8835 30.3429C34.9176 31.3088 33.687 31.9665 32.3473 32.233C31.0077 32.4995 29.619 32.3627 28.3571 31.84C27.0951 31.3173 26.0165 30.4321 25.2577 29.2964C24.4988 28.1607 24.0937 26.8254 24.0937 25.4595C24.0937 23.6278 24.8214 21.8712 26.1165 20.576C27.4117 19.2808 29.1683 18.5532 31 18.5532Z" fill="#1D34FF"/>
<path d="M42.6875 39.1922C42.4834 39.1588 42.2747 39.167 42.0738 39.2163C41.873 39.2656 41.6842 39.355 41.5187 39.4791L38.2091 41.9547L32.1475 42.9906L30.8353 42.3372L31.2391 41.9334L36.3656 41.5031C36.7888 41.4645 37.182 41.2683 37.4673 40.9535C37.7527 40.6386 37.9093 40.228 37.9062 39.8031C37.9063 39.3871 37.7556 38.9852 37.4821 38.6717C37.2087 38.3582 36.8309 38.1543 36.4188 38.0978L29.4753 37.1469C29.4138 37.1359 29.3509 37.1359 29.2894 37.1469L24.5666 38.2094H20.375C20.2341 38.2094 20.099 38.2653 19.9993 38.365C19.8997 38.4646 19.8438 38.5997 19.8438 38.7406V44.5844C19.8438 44.7253 19.8997 44.8604 19.9993 44.96C20.099 45.0597 20.2341 45.1156 20.375 45.1156H23.4775L29.7675 47.2406C29.8239 47.2483 29.8811 47.2483 29.9375 47.2406C29.9674 47.2461 29.998 47.2461 30.0278 47.2406L39.0591 45.6469C39.156 45.6329 39.2466 45.5903 39.3194 45.5247L43.4578 41.8484C43.7311 41.6026 43.9072 41.2669 43.954 40.9023C44.0008 40.5377 43.9152 40.1684 43.7128 39.8616C43.5958 39.6867 43.4447 39.5372 43.2685 39.4222C43.0923 39.3072 42.8947 39.2289 42.6875 39.1922Z" fill="#1D34FF"/>
<circle cx="31" cy="25.4595" r="6.375" fill="#1D34FF"/>
<defs>
<linearGradient id="paint0_linear_4122_13004" x1="49.5" y1="-14.6655" x2="-3.52278e-06" y2="81.8345" gradientUnits="userSpaceOnUse">
<stop stop-color="#55C2FF"/>
<stop offset="1" stop-color="white"/>
</linearGradient>
<linearGradient id="paint1_linear_4122_13004" x1="30.5" y1="0.834473" x2="30.5" y2="61.8345" gradientUnits="userSpaceOnUse">
<stop stop-color="white"/>
<stop offset="1" stop-color="white" stop-opacity="0"/>
</linearGradient>
</defs>
</svg>
