<svg width="92" height="92" viewBox="0 0 92 92" fill="none" xmlns="http://www.w3.org/2000/svg">
<circle cx="46" cy="46" r="46" fill="#DDEBFF"/>
<path fill-rule="evenodd" clip-rule="evenodd" d="M30.5173 39.1774C33.5745 32.1589 41.2001 27.9057 49.0788 29.3595C57.6028 30.9324 63.4383 38.6343 62.8355 47.0372C62.7612 48.0617 63.5386 48.9542 64.5712 49.0286C65.6037 49.103 66.5017 48.3276 66.5738 47.3027C67.3132 37.0311 60.1813 27.6157 49.7631 25.6933C40.1329 23.9163 30.8119 29.1176 27.0755 37.6937C26.6631 38.6392 27.1018 39.7371 28.0504 40.1467C28.9994 40.5542 30.1053 40.1206 30.5173 39.1774Z" fill="#217AFF"/>
<path fill-rule="evenodd" clip-rule="evenodd" d="M30.5665 37.8047L29.0923 33.662C28.7464 32.6945 27.6748 32.1859 26.7008 32.5271C25.7249 32.8674 25.2044 33.9517 25.5522 34.9202L27.0264 39.0628C27.3723 40.0304 28.444 40.5389 29.418 40.1978C30.3938 39.8575 30.9143 38.7731 30.5665 37.8047Z" fill="#217AFF"/>
<path fill-rule="evenodd" clip-rule="evenodd" d="M29.4185 40.1972L33.5848 38.7315C34.5607 38.3913 35.0811 37.307 34.7334 36.3388C34.3875 35.3714 33.3158 34.8629 32.3418 35.204L28.1756 36.6698C27.1997 37.01 26.6792 38.0942 27.027 39.0625C27.3729 40.0298 28.4445 40.5383 29.4185 40.1972Z" fill="#217AFF"/>
<path fill-rule="evenodd" clip-rule="evenodd" d="M61.4003 53.7348L62.5442 57.9794C62.8129 58.9709 63.8412 59.5612 64.8391 59.2969C65.8388 59.0336 66.443 57.993 66.1725 57.0005L65.0287 52.7559C64.7599 51.7645 63.7316 51.1741 62.7337 51.4385C61.734 51.7018 61.1298 52.7423 61.4003 53.7348Z" fill="#217AFF"/>
<path fill-rule="evenodd" clip-rule="evenodd" d="M62.7335 51.438L58.4647 52.5753C57.465 52.8386 56.8608 53.8792 57.1313 54.8716C57.4 55.8631 58.4284 56.4534 59.4262 56.1891L63.6951 55.0518C64.6947 54.7885 65.2989 53.7479 65.0284 52.7554C64.7597 51.764 63.7314 51.1736 62.7335 51.438Z" fill="#217AFF"/>
<path fill-rule="evenodd" clip-rule="evenodd" d="M61.4948 52.5105C58.4466 59.5446 50.8115 63.81 42.9212 62.3541C34.3833 60.7787 28.5424 53.055 29.1694 44.638C29.2438 43.6136 28.4691 42.7193 27.4369 42.6426C26.4048 42.5659 25.5049 43.3385 25.4278 44.3647C24.6638 54.6526 31.8026 64.0948 42.2369 66.0202C51.8809 67.7996 61.2119 62.5838 64.9379 53.9873C65.348 53.0414 64.9093 51.9436 63.9603 51.5362C63.0086 51.1307 61.9045 51.567 61.4948 52.5105Z" fill="#217AFF"/>
<path fill-rule="evenodd" clip-rule="evenodd" d="M28.9424 47.3816H63.0594C63.9061 47.3816 64.5931 46.6973 64.5931 45.8562C64.5931 45.0151 63.9061 44.3308 63.0594 44.3308H28.9424C28.0957 44.3308 27.4087 45.0151 27.4087 45.8562C27.4087 46.6973 28.0957 47.3816 28.9424 47.3816Z" fill="#217AFF"/>
<path fill-rule="evenodd" clip-rule="evenodd" d="M47.1254 62.8662C42.6217 59.4861 39.6988 53.1918 39.6988 45.8586C39.6988 38.5253 42.6394 32.2661 47.1416 28.8861C47.9754 28.2603 48.1419 27.0791 47.5113 26.2487C46.8808 25.4202 45.6934 25.2545 44.8581 25.8803C39.5412 29.8724 35.9097 37.1979 35.9097 45.8586C35.9097 54.5193 39.525 61.8798 44.8419 65.872C45.6772 66.4977 46.8661 66.334 47.4951 65.5036C48.1257 64.6751 47.9592 63.4919 47.1254 62.8662Z" fill="#217AFF"/>
<path fill-rule="evenodd" clip-rule="evenodd" d="M44.8587 28.8637C49.243 32.2906 52.1144 38.6374 52.1144 45.8575C52.1144 53.0991 49.2254 59.4635 44.8175 62.8825C43.9939 63.5219 43.8466 64.7071 44.4904 65.5257C45.1327 66.3464 46.3231 66.4926 47.1481 65.8532C52.3412 61.8241 55.9035 54.3915 55.9035 45.8575C55.9035 37.3528 52.3648 29.9397 47.1997 25.9028C46.3776 25.2595 45.1858 25.4018 44.5405 26.2186C43.8937 27.0353 44.0366 28.2205 44.8587 28.8637Z" fill="#217AFF"/>
</svg>
